%TF.GenerationSoftware,KiCad,Pcbnew,7.0.6*%
%TF.CreationDate,2023-07-14T13:54:38-07:00*%
%TF.ProjectId,pcb,7063622e-6b69-4636-9164-5f7063625858,rev?*%
%TF.SameCoordinates,Original*%
%TF.FileFunction,Legend,Top*%
%TF.FilePolarity,Positive*%
%FSLAX46Y46*%
G04 Gerber Fmt 4.6, Leading zero omitted, Abs format (unit mm)*
G04 Created by KiCad (PCBNEW 7.0.6) date 2023-07-14 13:54:38*
%MOMM*%
%LPD*%
G01*
G04 APERTURE LIST*
%ADD10C,0.150000*%
%ADD11C,0.120000*%
G04 APERTURE END LIST*
D10*
X100916666Y-49184819D02*
X100916666Y-49899104D01*
X100916666Y-49899104D02*
X100869047Y-50041961D01*
X100869047Y-50041961D02*
X100773809Y-50137200D01*
X100773809Y-50137200D02*
X100630952Y-50184819D01*
X100630952Y-50184819D02*
X100535714Y-50184819D01*
X101345238Y-49280057D02*
X101392857Y-49232438D01*
X101392857Y-49232438D02*
X101488095Y-49184819D01*
X101488095Y-49184819D02*
X101726190Y-49184819D01*
X101726190Y-49184819D02*
X101821428Y-49232438D01*
X101821428Y-49232438D02*
X101869047Y-49280057D01*
X101869047Y-49280057D02*
X101916666Y-49375295D01*
X101916666Y-49375295D02*
X101916666Y-49470533D01*
X101916666Y-49470533D02*
X101869047Y-49613390D01*
X101869047Y-49613390D02*
X101297619Y-50184819D01*
X101297619Y-50184819D02*
X101916666Y-50184819D01*
X81416667Y-54407200D02*
X81559524Y-54454819D01*
X81559524Y-54454819D02*
X81797619Y-54454819D01*
X81797619Y-54454819D02*
X81892857Y-54407200D01*
X81892857Y-54407200D02*
X81940476Y-54359580D01*
X81940476Y-54359580D02*
X81988095Y-54264342D01*
X81988095Y-54264342D02*
X81988095Y-54169104D01*
X81988095Y-54169104D02*
X81940476Y-54073866D01*
X81940476Y-54073866D02*
X81892857Y-54026247D01*
X81892857Y-54026247D02*
X81797619Y-53978628D01*
X81797619Y-53978628D02*
X81607143Y-53931009D01*
X81607143Y-53931009D02*
X81511905Y-53883390D01*
X81511905Y-53883390D02*
X81464286Y-53835771D01*
X81464286Y-53835771D02*
X81416667Y-53740533D01*
X81416667Y-53740533D02*
X81416667Y-53645295D01*
X81416667Y-53645295D02*
X81464286Y-53550057D01*
X81464286Y-53550057D02*
X81511905Y-53502438D01*
X81511905Y-53502438D02*
X81607143Y-53454819D01*
X81607143Y-53454819D02*
X81845238Y-53454819D01*
X81845238Y-53454819D02*
X81988095Y-53502438D01*
X82321429Y-53454819D02*
X82559524Y-54454819D01*
X82559524Y-54454819D02*
X82750000Y-53740533D01*
X82750000Y-53740533D02*
X82940476Y-54454819D01*
X82940476Y-54454819D02*
X83178572Y-53454819D01*
X84083333Y-54454819D02*
X83511905Y-54454819D01*
X83797619Y-54454819D02*
X83797619Y-53454819D01*
X83797619Y-53454819D02*
X83702381Y-53597676D01*
X83702381Y-53597676D02*
X83607143Y-53692914D01*
X83607143Y-53692914D02*
X83511905Y-53740533D01*
X100511905Y-57704819D02*
X100511905Y-56704819D01*
X100511905Y-56704819D02*
X100750000Y-56704819D01*
X100750000Y-56704819D02*
X100892857Y-56752438D01*
X100892857Y-56752438D02*
X100988095Y-56847676D01*
X100988095Y-56847676D02*
X101035714Y-56942914D01*
X101035714Y-56942914D02*
X101083333Y-57133390D01*
X101083333Y-57133390D02*
X101083333Y-57276247D01*
X101083333Y-57276247D02*
X101035714Y-57466723D01*
X101035714Y-57466723D02*
X100988095Y-57561961D01*
X100988095Y-57561961D02*
X100892857Y-57657200D01*
X100892857Y-57657200D02*
X100750000Y-57704819D01*
X100750000Y-57704819D02*
X100511905Y-57704819D01*
X102083333Y-57609580D02*
X102035714Y-57657200D01*
X102035714Y-57657200D02*
X101892857Y-57704819D01*
X101892857Y-57704819D02*
X101797619Y-57704819D01*
X101797619Y-57704819D02*
X101654762Y-57657200D01*
X101654762Y-57657200D02*
X101559524Y-57561961D01*
X101559524Y-57561961D02*
X101511905Y-57466723D01*
X101511905Y-57466723D02*
X101464286Y-57276247D01*
X101464286Y-57276247D02*
X101464286Y-57133390D01*
X101464286Y-57133390D02*
X101511905Y-56942914D01*
X101511905Y-56942914D02*
X101559524Y-56847676D01*
X101559524Y-56847676D02*
X101654762Y-56752438D01*
X101654762Y-56752438D02*
X101797619Y-56704819D01*
X101797619Y-56704819D02*
X101892857Y-56704819D01*
X101892857Y-56704819D02*
X102035714Y-56752438D01*
X102035714Y-56752438D02*
X102083333Y-56800057D01*
X102940476Y-56704819D02*
X102750000Y-56704819D01*
X102750000Y-56704819D02*
X102654762Y-56752438D01*
X102654762Y-56752438D02*
X102607143Y-56800057D01*
X102607143Y-56800057D02*
X102511905Y-56942914D01*
X102511905Y-56942914D02*
X102464286Y-57133390D01*
X102464286Y-57133390D02*
X102464286Y-57514342D01*
X102464286Y-57514342D02*
X102511905Y-57609580D01*
X102511905Y-57609580D02*
X102559524Y-57657200D01*
X102559524Y-57657200D02*
X102654762Y-57704819D01*
X102654762Y-57704819D02*
X102845238Y-57704819D01*
X102845238Y-57704819D02*
X102940476Y-57657200D01*
X102940476Y-57657200D02*
X102988095Y-57609580D01*
X102988095Y-57609580D02*
X103035714Y-57514342D01*
X103035714Y-57514342D02*
X103035714Y-57276247D01*
X103035714Y-57276247D02*
X102988095Y-57181009D01*
X102988095Y-57181009D02*
X102940476Y-57133390D01*
X102940476Y-57133390D02*
X102845238Y-57085771D01*
X102845238Y-57085771D02*
X102654762Y-57085771D01*
X102654762Y-57085771D02*
X102559524Y-57133390D01*
X102559524Y-57133390D02*
X102511905Y-57181009D01*
X102511905Y-57181009D02*
X102464286Y-57276247D01*
X70137319Y-90481904D02*
X70946842Y-90481904D01*
X70946842Y-90481904D02*
X71042080Y-90434285D01*
X71042080Y-90434285D02*
X71089700Y-90386666D01*
X71089700Y-90386666D02*
X71137319Y-90291428D01*
X71137319Y-90291428D02*
X71137319Y-90100952D01*
X71137319Y-90100952D02*
X71089700Y-90005714D01*
X71089700Y-90005714D02*
X71042080Y-89958095D01*
X71042080Y-89958095D02*
X70946842Y-89910476D01*
X70946842Y-89910476D02*
X70137319Y-89910476D01*
X70137319Y-89529523D02*
X70137319Y-88910476D01*
X70137319Y-88910476D02*
X70518271Y-89243809D01*
X70518271Y-89243809D02*
X70518271Y-89100952D01*
X70518271Y-89100952D02*
X70565890Y-89005714D01*
X70565890Y-89005714D02*
X70613509Y-88958095D01*
X70613509Y-88958095D02*
X70708747Y-88910476D01*
X70708747Y-88910476D02*
X70946842Y-88910476D01*
X70946842Y-88910476D02*
X71042080Y-88958095D01*
X71042080Y-88958095D02*
X71089700Y-89005714D01*
X71089700Y-89005714D02*
X71137319Y-89100952D01*
X71137319Y-89100952D02*
X71137319Y-89386666D01*
X71137319Y-89386666D02*
X71089700Y-89481904D01*
X71089700Y-89481904D02*
X71042080Y-89529523D01*
X91833333Y-63454819D02*
X91500000Y-62978628D01*
X91261905Y-63454819D02*
X91261905Y-62454819D01*
X91261905Y-62454819D02*
X91642857Y-62454819D01*
X91642857Y-62454819D02*
X91738095Y-62502438D01*
X91738095Y-62502438D02*
X91785714Y-62550057D01*
X91785714Y-62550057D02*
X91833333Y-62645295D01*
X91833333Y-62645295D02*
X91833333Y-62788152D01*
X91833333Y-62788152D02*
X91785714Y-62883390D01*
X91785714Y-62883390D02*
X91738095Y-62931009D01*
X91738095Y-62931009D02*
X91642857Y-62978628D01*
X91642857Y-62978628D02*
X91261905Y-62978628D01*
X92690476Y-62788152D02*
X92690476Y-63454819D01*
X92452381Y-62407200D02*
X92214286Y-63121485D01*
X92214286Y-63121485D02*
X92833333Y-63121485D01*
X78931905Y-60304819D02*
X78931905Y-59304819D01*
X78931905Y-59304819D02*
X79170000Y-59304819D01*
X79170000Y-59304819D02*
X79312857Y-59352438D01*
X79312857Y-59352438D02*
X79408095Y-59447676D01*
X79408095Y-59447676D02*
X79455714Y-59542914D01*
X79455714Y-59542914D02*
X79503333Y-59733390D01*
X79503333Y-59733390D02*
X79503333Y-59876247D01*
X79503333Y-59876247D02*
X79455714Y-60066723D01*
X79455714Y-60066723D02*
X79408095Y-60161961D01*
X79408095Y-60161961D02*
X79312857Y-60257200D01*
X79312857Y-60257200D02*
X79170000Y-60304819D01*
X79170000Y-60304819D02*
X78931905Y-60304819D01*
X80503333Y-60209580D02*
X80455714Y-60257200D01*
X80455714Y-60257200D02*
X80312857Y-60304819D01*
X80312857Y-60304819D02*
X80217619Y-60304819D01*
X80217619Y-60304819D02*
X80074762Y-60257200D01*
X80074762Y-60257200D02*
X79979524Y-60161961D01*
X79979524Y-60161961D02*
X79931905Y-60066723D01*
X79931905Y-60066723D02*
X79884286Y-59876247D01*
X79884286Y-59876247D02*
X79884286Y-59733390D01*
X79884286Y-59733390D02*
X79931905Y-59542914D01*
X79931905Y-59542914D02*
X79979524Y-59447676D01*
X79979524Y-59447676D02*
X80074762Y-59352438D01*
X80074762Y-59352438D02*
X80217619Y-59304819D01*
X80217619Y-59304819D02*
X80312857Y-59304819D01*
X80312857Y-59304819D02*
X80455714Y-59352438D01*
X80455714Y-59352438D02*
X80503333Y-59400057D01*
X80836667Y-59304819D02*
X81455714Y-59304819D01*
X81455714Y-59304819D02*
X81122381Y-59685771D01*
X81122381Y-59685771D02*
X81265238Y-59685771D01*
X81265238Y-59685771D02*
X81360476Y-59733390D01*
X81360476Y-59733390D02*
X81408095Y-59781009D01*
X81408095Y-59781009D02*
X81455714Y-59876247D01*
X81455714Y-59876247D02*
X81455714Y-60114342D01*
X81455714Y-60114342D02*
X81408095Y-60209580D01*
X81408095Y-60209580D02*
X81360476Y-60257200D01*
X81360476Y-60257200D02*
X81265238Y-60304819D01*
X81265238Y-60304819D02*
X80979524Y-60304819D01*
X80979524Y-60304819D02*
X80884286Y-60257200D01*
X80884286Y-60257200D02*
X80836667Y-60209580D01*
X86728628Y-59476190D02*
X87204819Y-59476190D01*
X86204819Y-59809523D02*
X86728628Y-59476190D01*
X86728628Y-59476190D02*
X86204819Y-59142857D01*
X86300057Y-58857142D02*
X86252438Y-58809523D01*
X86252438Y-58809523D02*
X86204819Y-58714285D01*
X86204819Y-58714285D02*
X86204819Y-58476190D01*
X86204819Y-58476190D02*
X86252438Y-58380952D01*
X86252438Y-58380952D02*
X86300057Y-58333333D01*
X86300057Y-58333333D02*
X86395295Y-58285714D01*
X86395295Y-58285714D02*
X86490533Y-58285714D01*
X86490533Y-58285714D02*
X86633390Y-58333333D01*
X86633390Y-58333333D02*
X87204819Y-58904761D01*
X87204819Y-58904761D02*
X87204819Y-58285714D01*
X99097142Y-102454819D02*
X98763809Y-101978628D01*
X98525714Y-102454819D02*
X98525714Y-101454819D01*
X98525714Y-101454819D02*
X98906666Y-101454819D01*
X98906666Y-101454819D02*
X99001904Y-101502438D01*
X99001904Y-101502438D02*
X99049523Y-101550057D01*
X99049523Y-101550057D02*
X99097142Y-101645295D01*
X99097142Y-101645295D02*
X99097142Y-101788152D01*
X99097142Y-101788152D02*
X99049523Y-101883390D01*
X99049523Y-101883390D02*
X99001904Y-101931009D01*
X99001904Y-101931009D02*
X98906666Y-101978628D01*
X98906666Y-101978628D02*
X98525714Y-101978628D01*
X100049523Y-102454819D02*
X99478095Y-102454819D01*
X99763809Y-102454819D02*
X99763809Y-101454819D01*
X99763809Y-101454819D02*
X99668571Y-101597676D01*
X99668571Y-101597676D02*
X99573333Y-101692914D01*
X99573333Y-101692914D02*
X99478095Y-101740533D01*
X100954285Y-101454819D02*
X100478095Y-101454819D01*
X100478095Y-101454819D02*
X100430476Y-101931009D01*
X100430476Y-101931009D02*
X100478095Y-101883390D01*
X100478095Y-101883390D02*
X100573333Y-101835771D01*
X100573333Y-101835771D02*
X100811428Y-101835771D01*
X100811428Y-101835771D02*
X100906666Y-101883390D01*
X100906666Y-101883390D02*
X100954285Y-101931009D01*
X100954285Y-101931009D02*
X101001904Y-102026247D01*
X101001904Y-102026247D02*
X101001904Y-102264342D01*
X101001904Y-102264342D02*
X100954285Y-102359580D01*
X100954285Y-102359580D02*
X100906666Y-102407200D01*
X100906666Y-102407200D02*
X100811428Y-102454819D01*
X100811428Y-102454819D02*
X100573333Y-102454819D01*
X100573333Y-102454819D02*
X100478095Y-102407200D01*
X100478095Y-102407200D02*
X100430476Y-102359580D01*
X95199819Y-75761904D02*
X96009342Y-75761904D01*
X96009342Y-75761904D02*
X96104580Y-75714285D01*
X96104580Y-75714285D02*
X96152200Y-75666666D01*
X96152200Y-75666666D02*
X96199819Y-75571428D01*
X96199819Y-75571428D02*
X96199819Y-75380952D01*
X96199819Y-75380952D02*
X96152200Y-75285714D01*
X96152200Y-75285714D02*
X96104580Y-75238095D01*
X96104580Y-75238095D02*
X96009342Y-75190476D01*
X96009342Y-75190476D02*
X95199819Y-75190476D01*
X96199819Y-74190476D02*
X96199819Y-74761904D01*
X96199819Y-74476190D02*
X95199819Y-74476190D01*
X95199819Y-74476190D02*
X95342676Y-74571428D01*
X95342676Y-74571428D02*
X95437914Y-74666666D01*
X95437914Y-74666666D02*
X95485533Y-74761904D01*
X99107142Y-103704819D02*
X98773809Y-103228628D01*
X98535714Y-103704819D02*
X98535714Y-102704819D01*
X98535714Y-102704819D02*
X98916666Y-102704819D01*
X98916666Y-102704819D02*
X99011904Y-102752438D01*
X99011904Y-102752438D02*
X99059523Y-102800057D01*
X99059523Y-102800057D02*
X99107142Y-102895295D01*
X99107142Y-102895295D02*
X99107142Y-103038152D01*
X99107142Y-103038152D02*
X99059523Y-103133390D01*
X99059523Y-103133390D02*
X99011904Y-103181009D01*
X99011904Y-103181009D02*
X98916666Y-103228628D01*
X98916666Y-103228628D02*
X98535714Y-103228628D01*
X100059523Y-103704819D02*
X99488095Y-103704819D01*
X99773809Y-103704819D02*
X99773809Y-102704819D01*
X99773809Y-102704819D02*
X99678571Y-102847676D01*
X99678571Y-102847676D02*
X99583333Y-102942914D01*
X99583333Y-102942914D02*
X99488095Y-102990533D01*
X100916666Y-103038152D02*
X100916666Y-103704819D01*
X100678571Y-102657200D02*
X100440476Y-103371485D01*
X100440476Y-103371485D02*
X101059523Y-103371485D01*
X100511905Y-60204819D02*
X100511905Y-59204819D01*
X100511905Y-59204819D02*
X100750000Y-59204819D01*
X100750000Y-59204819D02*
X100892857Y-59252438D01*
X100892857Y-59252438D02*
X100988095Y-59347676D01*
X100988095Y-59347676D02*
X101035714Y-59442914D01*
X101035714Y-59442914D02*
X101083333Y-59633390D01*
X101083333Y-59633390D02*
X101083333Y-59776247D01*
X101083333Y-59776247D02*
X101035714Y-59966723D01*
X101035714Y-59966723D02*
X100988095Y-60061961D01*
X100988095Y-60061961D02*
X100892857Y-60157200D01*
X100892857Y-60157200D02*
X100750000Y-60204819D01*
X100750000Y-60204819D02*
X100511905Y-60204819D01*
X102083333Y-60109580D02*
X102035714Y-60157200D01*
X102035714Y-60157200D02*
X101892857Y-60204819D01*
X101892857Y-60204819D02*
X101797619Y-60204819D01*
X101797619Y-60204819D02*
X101654762Y-60157200D01*
X101654762Y-60157200D02*
X101559524Y-60061961D01*
X101559524Y-60061961D02*
X101511905Y-59966723D01*
X101511905Y-59966723D02*
X101464286Y-59776247D01*
X101464286Y-59776247D02*
X101464286Y-59633390D01*
X101464286Y-59633390D02*
X101511905Y-59442914D01*
X101511905Y-59442914D02*
X101559524Y-59347676D01*
X101559524Y-59347676D02*
X101654762Y-59252438D01*
X101654762Y-59252438D02*
X101797619Y-59204819D01*
X101797619Y-59204819D02*
X101892857Y-59204819D01*
X101892857Y-59204819D02*
X102035714Y-59252438D01*
X102035714Y-59252438D02*
X102083333Y-59300057D01*
X102988095Y-59204819D02*
X102511905Y-59204819D01*
X102511905Y-59204819D02*
X102464286Y-59681009D01*
X102464286Y-59681009D02*
X102511905Y-59633390D01*
X102511905Y-59633390D02*
X102607143Y-59585771D01*
X102607143Y-59585771D02*
X102845238Y-59585771D01*
X102845238Y-59585771D02*
X102940476Y-59633390D01*
X102940476Y-59633390D02*
X102988095Y-59681009D01*
X102988095Y-59681009D02*
X103035714Y-59776247D01*
X103035714Y-59776247D02*
X103035714Y-60014342D01*
X103035714Y-60014342D02*
X102988095Y-60109580D01*
X102988095Y-60109580D02*
X102940476Y-60157200D01*
X102940476Y-60157200D02*
X102845238Y-60204819D01*
X102845238Y-60204819D02*
X102607143Y-60204819D01*
X102607143Y-60204819D02*
X102511905Y-60157200D01*
X102511905Y-60157200D02*
X102464286Y-60109580D01*
X100511905Y-58954819D02*
X100511905Y-57954819D01*
X100511905Y-57954819D02*
X100750000Y-57954819D01*
X100750000Y-57954819D02*
X100892857Y-58002438D01*
X100892857Y-58002438D02*
X100988095Y-58097676D01*
X100988095Y-58097676D02*
X101035714Y-58192914D01*
X101035714Y-58192914D02*
X101083333Y-58383390D01*
X101083333Y-58383390D02*
X101083333Y-58526247D01*
X101083333Y-58526247D02*
X101035714Y-58716723D01*
X101035714Y-58716723D02*
X100988095Y-58811961D01*
X100988095Y-58811961D02*
X100892857Y-58907200D01*
X100892857Y-58907200D02*
X100750000Y-58954819D01*
X100750000Y-58954819D02*
X100511905Y-58954819D01*
X102083333Y-58859580D02*
X102035714Y-58907200D01*
X102035714Y-58907200D02*
X101892857Y-58954819D01*
X101892857Y-58954819D02*
X101797619Y-58954819D01*
X101797619Y-58954819D02*
X101654762Y-58907200D01*
X101654762Y-58907200D02*
X101559524Y-58811961D01*
X101559524Y-58811961D02*
X101511905Y-58716723D01*
X101511905Y-58716723D02*
X101464286Y-58526247D01*
X101464286Y-58526247D02*
X101464286Y-58383390D01*
X101464286Y-58383390D02*
X101511905Y-58192914D01*
X101511905Y-58192914D02*
X101559524Y-58097676D01*
X101559524Y-58097676D02*
X101654762Y-58002438D01*
X101654762Y-58002438D02*
X101797619Y-57954819D01*
X101797619Y-57954819D02*
X101892857Y-57954819D01*
X101892857Y-57954819D02*
X102035714Y-58002438D01*
X102035714Y-58002438D02*
X102083333Y-58050057D01*
X102940476Y-58288152D02*
X102940476Y-58954819D01*
X102702381Y-57907200D02*
X102464286Y-58621485D01*
X102464286Y-58621485D02*
X103083333Y-58621485D01*
X92954819Y-100142857D02*
X92478628Y-100476190D01*
X92954819Y-100714285D02*
X91954819Y-100714285D01*
X91954819Y-100714285D02*
X91954819Y-100333333D01*
X91954819Y-100333333D02*
X92002438Y-100238095D01*
X92002438Y-100238095D02*
X92050057Y-100190476D01*
X92050057Y-100190476D02*
X92145295Y-100142857D01*
X92145295Y-100142857D02*
X92288152Y-100142857D01*
X92288152Y-100142857D02*
X92383390Y-100190476D01*
X92383390Y-100190476D02*
X92431009Y-100238095D01*
X92431009Y-100238095D02*
X92478628Y-100333333D01*
X92478628Y-100333333D02*
X92478628Y-100714285D01*
X92954819Y-99190476D02*
X92954819Y-99761904D01*
X92954819Y-99476190D02*
X91954819Y-99476190D01*
X91954819Y-99476190D02*
X92097676Y-99571428D01*
X92097676Y-99571428D02*
X92192914Y-99666666D01*
X92192914Y-99666666D02*
X92240533Y-99761904D01*
X91954819Y-98857142D02*
X91954819Y-98238095D01*
X91954819Y-98238095D02*
X92335771Y-98571428D01*
X92335771Y-98571428D02*
X92335771Y-98428571D01*
X92335771Y-98428571D02*
X92383390Y-98333333D01*
X92383390Y-98333333D02*
X92431009Y-98285714D01*
X92431009Y-98285714D02*
X92526247Y-98238095D01*
X92526247Y-98238095D02*
X92764342Y-98238095D01*
X92764342Y-98238095D02*
X92859580Y-98285714D01*
X92859580Y-98285714D02*
X92907200Y-98333333D01*
X92907200Y-98333333D02*
X92954819Y-98428571D01*
X92954819Y-98428571D02*
X92954819Y-98714285D01*
X92954819Y-98714285D02*
X92907200Y-98809523D01*
X92907200Y-98809523D02*
X92859580Y-98857142D01*
X100511905Y-62704819D02*
X100511905Y-61704819D01*
X100511905Y-61704819D02*
X100750000Y-61704819D01*
X100750000Y-61704819D02*
X100892857Y-61752438D01*
X100892857Y-61752438D02*
X100988095Y-61847676D01*
X100988095Y-61847676D02*
X101035714Y-61942914D01*
X101035714Y-61942914D02*
X101083333Y-62133390D01*
X101083333Y-62133390D02*
X101083333Y-62276247D01*
X101083333Y-62276247D02*
X101035714Y-62466723D01*
X101035714Y-62466723D02*
X100988095Y-62561961D01*
X100988095Y-62561961D02*
X100892857Y-62657200D01*
X100892857Y-62657200D02*
X100750000Y-62704819D01*
X100750000Y-62704819D02*
X100511905Y-62704819D01*
X102083333Y-62609580D02*
X102035714Y-62657200D01*
X102035714Y-62657200D02*
X101892857Y-62704819D01*
X101892857Y-62704819D02*
X101797619Y-62704819D01*
X101797619Y-62704819D02*
X101654762Y-62657200D01*
X101654762Y-62657200D02*
X101559524Y-62561961D01*
X101559524Y-62561961D02*
X101511905Y-62466723D01*
X101511905Y-62466723D02*
X101464286Y-62276247D01*
X101464286Y-62276247D02*
X101464286Y-62133390D01*
X101464286Y-62133390D02*
X101511905Y-61942914D01*
X101511905Y-61942914D02*
X101559524Y-61847676D01*
X101559524Y-61847676D02*
X101654762Y-61752438D01*
X101654762Y-61752438D02*
X101797619Y-61704819D01*
X101797619Y-61704819D02*
X101892857Y-61704819D01*
X101892857Y-61704819D02*
X102035714Y-61752438D01*
X102035714Y-61752438D02*
X102083333Y-61800057D01*
X102654762Y-62133390D02*
X102559524Y-62085771D01*
X102559524Y-62085771D02*
X102511905Y-62038152D01*
X102511905Y-62038152D02*
X102464286Y-61942914D01*
X102464286Y-61942914D02*
X102464286Y-61895295D01*
X102464286Y-61895295D02*
X102511905Y-61800057D01*
X102511905Y-61800057D02*
X102559524Y-61752438D01*
X102559524Y-61752438D02*
X102654762Y-61704819D01*
X102654762Y-61704819D02*
X102845238Y-61704819D01*
X102845238Y-61704819D02*
X102940476Y-61752438D01*
X102940476Y-61752438D02*
X102988095Y-61800057D01*
X102988095Y-61800057D02*
X103035714Y-61895295D01*
X103035714Y-61895295D02*
X103035714Y-61942914D01*
X103035714Y-61942914D02*
X102988095Y-62038152D01*
X102988095Y-62038152D02*
X102940476Y-62085771D01*
X102940476Y-62085771D02*
X102845238Y-62133390D01*
X102845238Y-62133390D02*
X102654762Y-62133390D01*
X102654762Y-62133390D02*
X102559524Y-62181009D01*
X102559524Y-62181009D02*
X102511905Y-62228628D01*
X102511905Y-62228628D02*
X102464286Y-62323866D01*
X102464286Y-62323866D02*
X102464286Y-62514342D01*
X102464286Y-62514342D02*
X102511905Y-62609580D01*
X102511905Y-62609580D02*
X102559524Y-62657200D01*
X102559524Y-62657200D02*
X102654762Y-62704819D01*
X102654762Y-62704819D02*
X102845238Y-62704819D01*
X102845238Y-62704819D02*
X102940476Y-62657200D01*
X102940476Y-62657200D02*
X102988095Y-62609580D01*
X102988095Y-62609580D02*
X103035714Y-62514342D01*
X103035714Y-62514342D02*
X103035714Y-62323866D01*
X103035714Y-62323866D02*
X102988095Y-62228628D01*
X102988095Y-62228628D02*
X102940476Y-62181009D01*
X102940476Y-62181009D02*
X102845238Y-62133390D01*
X95374819Y-86416666D02*
X94898628Y-86749999D01*
X95374819Y-86988094D02*
X94374819Y-86988094D01*
X94374819Y-86988094D02*
X94374819Y-86607142D01*
X94374819Y-86607142D02*
X94422438Y-86511904D01*
X94422438Y-86511904D02*
X94470057Y-86464285D01*
X94470057Y-86464285D02*
X94565295Y-86416666D01*
X94565295Y-86416666D02*
X94708152Y-86416666D01*
X94708152Y-86416666D02*
X94803390Y-86464285D01*
X94803390Y-86464285D02*
X94851009Y-86511904D01*
X94851009Y-86511904D02*
X94898628Y-86607142D01*
X94898628Y-86607142D02*
X94898628Y-86988094D01*
X94374819Y-86083332D02*
X94374819Y-85416666D01*
X94374819Y-85416666D02*
X95374819Y-85845237D01*
X88359580Y-100166666D02*
X88407200Y-100214285D01*
X88407200Y-100214285D02*
X88454819Y-100357142D01*
X88454819Y-100357142D02*
X88454819Y-100452380D01*
X88454819Y-100452380D02*
X88407200Y-100595237D01*
X88407200Y-100595237D02*
X88311961Y-100690475D01*
X88311961Y-100690475D02*
X88216723Y-100738094D01*
X88216723Y-100738094D02*
X88026247Y-100785713D01*
X88026247Y-100785713D02*
X87883390Y-100785713D01*
X87883390Y-100785713D02*
X87692914Y-100738094D01*
X87692914Y-100738094D02*
X87597676Y-100690475D01*
X87597676Y-100690475D02*
X87502438Y-100595237D01*
X87502438Y-100595237D02*
X87454819Y-100452380D01*
X87454819Y-100452380D02*
X87454819Y-100357142D01*
X87454819Y-100357142D02*
X87502438Y-100214285D01*
X87502438Y-100214285D02*
X87550057Y-100166666D01*
X87883390Y-99595237D02*
X87835771Y-99690475D01*
X87835771Y-99690475D02*
X87788152Y-99738094D01*
X87788152Y-99738094D02*
X87692914Y-99785713D01*
X87692914Y-99785713D02*
X87645295Y-99785713D01*
X87645295Y-99785713D02*
X87550057Y-99738094D01*
X87550057Y-99738094D02*
X87502438Y-99690475D01*
X87502438Y-99690475D02*
X87454819Y-99595237D01*
X87454819Y-99595237D02*
X87454819Y-99404761D01*
X87454819Y-99404761D02*
X87502438Y-99309523D01*
X87502438Y-99309523D02*
X87550057Y-99261904D01*
X87550057Y-99261904D02*
X87645295Y-99214285D01*
X87645295Y-99214285D02*
X87692914Y-99214285D01*
X87692914Y-99214285D02*
X87788152Y-99261904D01*
X87788152Y-99261904D02*
X87835771Y-99309523D01*
X87835771Y-99309523D02*
X87883390Y-99404761D01*
X87883390Y-99404761D02*
X87883390Y-99595237D01*
X87883390Y-99595237D02*
X87931009Y-99690475D01*
X87931009Y-99690475D02*
X87978628Y-99738094D01*
X87978628Y-99738094D02*
X88073866Y-99785713D01*
X88073866Y-99785713D02*
X88264342Y-99785713D01*
X88264342Y-99785713D02*
X88359580Y-99738094D01*
X88359580Y-99738094D02*
X88407200Y-99690475D01*
X88407200Y-99690475D02*
X88454819Y-99595237D01*
X88454819Y-99595237D02*
X88454819Y-99404761D01*
X88454819Y-99404761D02*
X88407200Y-99309523D01*
X88407200Y-99309523D02*
X88359580Y-99261904D01*
X88359580Y-99261904D02*
X88264342Y-99214285D01*
X88264342Y-99214285D02*
X88073866Y-99214285D01*
X88073866Y-99214285D02*
X87978628Y-99261904D01*
X87978628Y-99261904D02*
X87931009Y-99309523D01*
X87931009Y-99309523D02*
X87883390Y-99404761D01*
X91761905Y-59204819D02*
X91761905Y-58204819D01*
X91761905Y-58204819D02*
X92000000Y-58204819D01*
X92000000Y-58204819D02*
X92142857Y-58252438D01*
X92142857Y-58252438D02*
X92238095Y-58347676D01*
X92238095Y-58347676D02*
X92285714Y-58442914D01*
X92285714Y-58442914D02*
X92333333Y-58633390D01*
X92333333Y-58633390D02*
X92333333Y-58776247D01*
X92333333Y-58776247D02*
X92285714Y-58966723D01*
X92285714Y-58966723D02*
X92238095Y-59061961D01*
X92238095Y-59061961D02*
X92142857Y-59157200D01*
X92142857Y-59157200D02*
X92000000Y-59204819D01*
X92000000Y-59204819D02*
X91761905Y-59204819D01*
X92714286Y-58300057D02*
X92761905Y-58252438D01*
X92761905Y-58252438D02*
X92857143Y-58204819D01*
X92857143Y-58204819D02*
X93095238Y-58204819D01*
X93095238Y-58204819D02*
X93190476Y-58252438D01*
X93190476Y-58252438D02*
X93238095Y-58300057D01*
X93238095Y-58300057D02*
X93285714Y-58395295D01*
X93285714Y-58395295D02*
X93285714Y-58490533D01*
X93285714Y-58490533D02*
X93238095Y-58633390D01*
X93238095Y-58633390D02*
X92666667Y-59204819D01*
X92666667Y-59204819D02*
X93285714Y-59204819D01*
X81045833Y-106809819D02*
X80712500Y-106333628D01*
X80474405Y-106809819D02*
X80474405Y-105809819D01*
X80474405Y-105809819D02*
X80855357Y-105809819D01*
X80855357Y-105809819D02*
X80950595Y-105857438D01*
X80950595Y-105857438D02*
X80998214Y-105905057D01*
X80998214Y-105905057D02*
X81045833Y-106000295D01*
X81045833Y-106000295D02*
X81045833Y-106143152D01*
X81045833Y-106143152D02*
X80998214Y-106238390D01*
X80998214Y-106238390D02*
X80950595Y-106286009D01*
X80950595Y-106286009D02*
X80855357Y-106333628D01*
X80855357Y-106333628D02*
X80474405Y-106333628D01*
X81998214Y-106809819D02*
X81426786Y-106809819D01*
X81712500Y-106809819D02*
X81712500Y-105809819D01*
X81712500Y-105809819D02*
X81617262Y-105952676D01*
X81617262Y-105952676D02*
X81522024Y-106047914D01*
X81522024Y-106047914D02*
X81426786Y-106095533D01*
X82833333Y-106809819D02*
X82500000Y-106333628D01*
X82261905Y-106809819D02*
X82261905Y-105809819D01*
X82261905Y-105809819D02*
X82642857Y-105809819D01*
X82642857Y-105809819D02*
X82738095Y-105857438D01*
X82738095Y-105857438D02*
X82785714Y-105905057D01*
X82785714Y-105905057D02*
X82833333Y-106000295D01*
X82833333Y-106000295D02*
X82833333Y-106143152D01*
X82833333Y-106143152D02*
X82785714Y-106238390D01*
X82785714Y-106238390D02*
X82738095Y-106286009D01*
X82738095Y-106286009D02*
X82642857Y-106333628D01*
X82642857Y-106333628D02*
X82261905Y-106333628D01*
X83214286Y-105905057D02*
X83261905Y-105857438D01*
X83261905Y-105857438D02*
X83357143Y-105809819D01*
X83357143Y-105809819D02*
X83595238Y-105809819D01*
X83595238Y-105809819D02*
X83690476Y-105857438D01*
X83690476Y-105857438D02*
X83738095Y-105905057D01*
X83738095Y-105905057D02*
X83785714Y-106000295D01*
X83785714Y-106000295D02*
X83785714Y-106095533D01*
X83785714Y-106095533D02*
X83738095Y-106238390D01*
X83738095Y-106238390D02*
X83166667Y-106809819D01*
X83166667Y-106809819D02*
X83785714Y-106809819D01*
X102333333Y-64859580D02*
X102285714Y-64907200D01*
X102285714Y-64907200D02*
X102142857Y-64954819D01*
X102142857Y-64954819D02*
X102047619Y-64954819D01*
X102047619Y-64954819D02*
X101904762Y-64907200D01*
X101904762Y-64907200D02*
X101809524Y-64811961D01*
X101809524Y-64811961D02*
X101761905Y-64716723D01*
X101761905Y-64716723D02*
X101714286Y-64526247D01*
X101714286Y-64526247D02*
X101714286Y-64383390D01*
X101714286Y-64383390D02*
X101761905Y-64192914D01*
X101761905Y-64192914D02*
X101809524Y-64097676D01*
X101809524Y-64097676D02*
X101904762Y-64002438D01*
X101904762Y-64002438D02*
X102047619Y-63954819D01*
X102047619Y-63954819D02*
X102142857Y-63954819D01*
X102142857Y-63954819D02*
X102285714Y-64002438D01*
X102285714Y-64002438D02*
X102333333Y-64050057D01*
X103238095Y-63954819D02*
X102761905Y-63954819D01*
X102761905Y-63954819D02*
X102714286Y-64431009D01*
X102714286Y-64431009D02*
X102761905Y-64383390D01*
X102761905Y-64383390D02*
X102857143Y-64335771D01*
X102857143Y-64335771D02*
X103095238Y-64335771D01*
X103095238Y-64335771D02*
X103190476Y-64383390D01*
X103190476Y-64383390D02*
X103238095Y-64431009D01*
X103238095Y-64431009D02*
X103285714Y-64526247D01*
X103285714Y-64526247D02*
X103285714Y-64764342D01*
X103285714Y-64764342D02*
X103238095Y-64859580D01*
X103238095Y-64859580D02*
X103190476Y-64907200D01*
X103190476Y-64907200D02*
X103095238Y-64954819D01*
X103095238Y-64954819D02*
X102857143Y-64954819D01*
X102857143Y-64954819D02*
X102761905Y-64907200D01*
X102761905Y-64907200D02*
X102714286Y-64859580D01*
X72083333Y-116454819D02*
X71750000Y-115978628D01*
X71511905Y-116454819D02*
X71511905Y-115454819D01*
X71511905Y-115454819D02*
X71892857Y-115454819D01*
X71892857Y-115454819D02*
X71988095Y-115502438D01*
X71988095Y-115502438D02*
X72035714Y-115550057D01*
X72035714Y-115550057D02*
X72083333Y-115645295D01*
X72083333Y-115645295D02*
X72083333Y-115788152D01*
X72083333Y-115788152D02*
X72035714Y-115883390D01*
X72035714Y-115883390D02*
X71988095Y-115931009D01*
X71988095Y-115931009D02*
X71892857Y-115978628D01*
X71892857Y-115978628D02*
X71511905Y-115978628D01*
X72940476Y-115454819D02*
X72750000Y-115454819D01*
X72750000Y-115454819D02*
X72654762Y-115502438D01*
X72654762Y-115502438D02*
X72607143Y-115550057D01*
X72607143Y-115550057D02*
X72511905Y-115692914D01*
X72511905Y-115692914D02*
X72464286Y-115883390D01*
X72464286Y-115883390D02*
X72464286Y-116264342D01*
X72464286Y-116264342D02*
X72511905Y-116359580D01*
X72511905Y-116359580D02*
X72559524Y-116407200D01*
X72559524Y-116407200D02*
X72654762Y-116454819D01*
X72654762Y-116454819D02*
X72845238Y-116454819D01*
X72845238Y-116454819D02*
X72940476Y-116407200D01*
X72940476Y-116407200D02*
X72988095Y-116359580D01*
X72988095Y-116359580D02*
X73035714Y-116264342D01*
X73035714Y-116264342D02*
X73035714Y-116026247D01*
X73035714Y-116026247D02*
X72988095Y-115931009D01*
X72988095Y-115931009D02*
X72940476Y-115883390D01*
X72940476Y-115883390D02*
X72845238Y-115835771D01*
X72845238Y-115835771D02*
X72654762Y-115835771D01*
X72654762Y-115835771D02*
X72559524Y-115883390D01*
X72559524Y-115883390D02*
X72511905Y-115931009D01*
X72511905Y-115931009D02*
X72464286Y-116026247D01*
X92259580Y-89891666D02*
X92307200Y-89939285D01*
X92307200Y-89939285D02*
X92354819Y-90082142D01*
X92354819Y-90082142D02*
X92354819Y-90177380D01*
X92354819Y-90177380D02*
X92307200Y-90320237D01*
X92307200Y-90320237D02*
X92211961Y-90415475D01*
X92211961Y-90415475D02*
X92116723Y-90463094D01*
X92116723Y-90463094D02*
X91926247Y-90510713D01*
X91926247Y-90510713D02*
X91783390Y-90510713D01*
X91783390Y-90510713D02*
X91592914Y-90463094D01*
X91592914Y-90463094D02*
X91497676Y-90415475D01*
X91497676Y-90415475D02*
X91402438Y-90320237D01*
X91402438Y-90320237D02*
X91354819Y-90177380D01*
X91354819Y-90177380D02*
X91354819Y-90082142D01*
X91354819Y-90082142D02*
X91402438Y-89939285D01*
X91402438Y-89939285D02*
X91450057Y-89891666D01*
X91354819Y-89034523D02*
X91354819Y-89224999D01*
X91354819Y-89224999D02*
X91402438Y-89320237D01*
X91402438Y-89320237D02*
X91450057Y-89367856D01*
X91450057Y-89367856D02*
X91592914Y-89463094D01*
X91592914Y-89463094D02*
X91783390Y-89510713D01*
X91783390Y-89510713D02*
X92164342Y-89510713D01*
X92164342Y-89510713D02*
X92259580Y-89463094D01*
X92259580Y-89463094D02*
X92307200Y-89415475D01*
X92307200Y-89415475D02*
X92354819Y-89320237D01*
X92354819Y-89320237D02*
X92354819Y-89129761D01*
X92354819Y-89129761D02*
X92307200Y-89034523D01*
X92307200Y-89034523D02*
X92259580Y-88986904D01*
X92259580Y-88986904D02*
X92164342Y-88939285D01*
X92164342Y-88939285D02*
X91926247Y-88939285D01*
X91926247Y-88939285D02*
X91831009Y-88986904D01*
X91831009Y-88986904D02*
X91783390Y-89034523D01*
X91783390Y-89034523D02*
X91735771Y-89129761D01*
X91735771Y-89129761D02*
X91735771Y-89320237D01*
X91735771Y-89320237D02*
X91783390Y-89415475D01*
X91783390Y-89415475D02*
X91831009Y-89463094D01*
X91831009Y-89463094D02*
X91926247Y-89510713D01*
X77808333Y-100209580D02*
X77760714Y-100257200D01*
X77760714Y-100257200D02*
X77617857Y-100304819D01*
X77617857Y-100304819D02*
X77522619Y-100304819D01*
X77522619Y-100304819D02*
X77379762Y-100257200D01*
X77379762Y-100257200D02*
X77284524Y-100161961D01*
X77284524Y-100161961D02*
X77236905Y-100066723D01*
X77236905Y-100066723D02*
X77189286Y-99876247D01*
X77189286Y-99876247D02*
X77189286Y-99733390D01*
X77189286Y-99733390D02*
X77236905Y-99542914D01*
X77236905Y-99542914D02*
X77284524Y-99447676D01*
X77284524Y-99447676D02*
X77379762Y-99352438D01*
X77379762Y-99352438D02*
X77522619Y-99304819D01*
X77522619Y-99304819D02*
X77617857Y-99304819D01*
X77617857Y-99304819D02*
X77760714Y-99352438D01*
X77760714Y-99352438D02*
X77808333Y-99400057D01*
X78760714Y-100304819D02*
X78189286Y-100304819D01*
X78475000Y-100304819D02*
X78475000Y-99304819D01*
X78475000Y-99304819D02*
X78379762Y-99447676D01*
X78379762Y-99447676D02*
X78284524Y-99542914D01*
X78284524Y-99542914D02*
X78189286Y-99590533D01*
X90359580Y-61416666D02*
X90407200Y-61464285D01*
X90407200Y-61464285D02*
X90454819Y-61607142D01*
X90454819Y-61607142D02*
X90454819Y-61702380D01*
X90454819Y-61702380D02*
X90407200Y-61845237D01*
X90407200Y-61845237D02*
X90311961Y-61940475D01*
X90311961Y-61940475D02*
X90216723Y-61988094D01*
X90216723Y-61988094D02*
X90026247Y-62035713D01*
X90026247Y-62035713D02*
X89883390Y-62035713D01*
X89883390Y-62035713D02*
X89692914Y-61988094D01*
X89692914Y-61988094D02*
X89597676Y-61940475D01*
X89597676Y-61940475D02*
X89502438Y-61845237D01*
X89502438Y-61845237D02*
X89454819Y-61702380D01*
X89454819Y-61702380D02*
X89454819Y-61607142D01*
X89454819Y-61607142D02*
X89502438Y-61464285D01*
X89502438Y-61464285D02*
X89550057Y-61416666D01*
X89788152Y-60559523D02*
X90454819Y-60559523D01*
X89407200Y-60797618D02*
X90121485Y-61035713D01*
X90121485Y-61035713D02*
X90121485Y-60416666D01*
X81204819Y-64488094D02*
X80204819Y-64488094D01*
X80204819Y-64488094D02*
X80204819Y-64249999D01*
X80204819Y-64249999D02*
X80252438Y-64107142D01*
X80252438Y-64107142D02*
X80347676Y-64011904D01*
X80347676Y-64011904D02*
X80442914Y-63964285D01*
X80442914Y-63964285D02*
X80633390Y-63916666D01*
X80633390Y-63916666D02*
X80776247Y-63916666D01*
X80776247Y-63916666D02*
X80966723Y-63964285D01*
X80966723Y-63964285D02*
X81061961Y-64011904D01*
X81061961Y-64011904D02*
X81157200Y-64107142D01*
X81157200Y-64107142D02*
X81204819Y-64249999D01*
X81204819Y-64249999D02*
X81204819Y-64488094D01*
X81109580Y-62916666D02*
X81157200Y-62964285D01*
X81157200Y-62964285D02*
X81204819Y-63107142D01*
X81204819Y-63107142D02*
X81204819Y-63202380D01*
X81204819Y-63202380D02*
X81157200Y-63345237D01*
X81157200Y-63345237D02*
X81061961Y-63440475D01*
X81061961Y-63440475D02*
X80966723Y-63488094D01*
X80966723Y-63488094D02*
X80776247Y-63535713D01*
X80776247Y-63535713D02*
X80633390Y-63535713D01*
X80633390Y-63535713D02*
X80442914Y-63488094D01*
X80442914Y-63488094D02*
X80347676Y-63440475D01*
X80347676Y-63440475D02*
X80252438Y-63345237D01*
X80252438Y-63345237D02*
X80204819Y-63202380D01*
X80204819Y-63202380D02*
X80204819Y-63107142D01*
X80204819Y-63107142D02*
X80252438Y-62964285D01*
X80252438Y-62964285D02*
X80300057Y-62916666D01*
X81204819Y-62440475D02*
X81204819Y-62249999D01*
X81204819Y-62249999D02*
X81157200Y-62154761D01*
X81157200Y-62154761D02*
X81109580Y-62107142D01*
X81109580Y-62107142D02*
X80966723Y-62011904D01*
X80966723Y-62011904D02*
X80776247Y-61964285D01*
X80776247Y-61964285D02*
X80395295Y-61964285D01*
X80395295Y-61964285D02*
X80300057Y-62011904D01*
X80300057Y-62011904D02*
X80252438Y-62059523D01*
X80252438Y-62059523D02*
X80204819Y-62154761D01*
X80204819Y-62154761D02*
X80204819Y-62345237D01*
X80204819Y-62345237D02*
X80252438Y-62440475D01*
X80252438Y-62440475D02*
X80300057Y-62488094D01*
X80300057Y-62488094D02*
X80395295Y-62535713D01*
X80395295Y-62535713D02*
X80633390Y-62535713D01*
X80633390Y-62535713D02*
X80728628Y-62488094D01*
X80728628Y-62488094D02*
X80776247Y-62440475D01*
X80776247Y-62440475D02*
X80823866Y-62345237D01*
X80823866Y-62345237D02*
X80823866Y-62154761D01*
X80823866Y-62154761D02*
X80776247Y-62059523D01*
X80776247Y-62059523D02*
X80728628Y-62011904D01*
X80728628Y-62011904D02*
X80633390Y-61964285D01*
X88916666Y-116704819D02*
X88916666Y-117419104D01*
X88916666Y-117419104D02*
X88869047Y-117561961D01*
X88869047Y-117561961D02*
X88773809Y-117657200D01*
X88773809Y-117657200D02*
X88630952Y-117704819D01*
X88630952Y-117704819D02*
X88535714Y-117704819D01*
X89297619Y-116704819D02*
X89916666Y-116704819D01*
X89916666Y-116704819D02*
X89583333Y-117085771D01*
X89583333Y-117085771D02*
X89726190Y-117085771D01*
X89726190Y-117085771D02*
X89821428Y-117133390D01*
X89821428Y-117133390D02*
X89869047Y-117181009D01*
X89869047Y-117181009D02*
X89916666Y-117276247D01*
X89916666Y-117276247D02*
X89916666Y-117514342D01*
X89916666Y-117514342D02*
X89869047Y-117609580D01*
X89869047Y-117609580D02*
X89821428Y-117657200D01*
X89821428Y-117657200D02*
X89726190Y-117704819D01*
X89726190Y-117704819D02*
X89440476Y-117704819D01*
X89440476Y-117704819D02*
X89345238Y-117657200D01*
X89345238Y-117657200D02*
X89297619Y-117609580D01*
X77704819Y-104523094D02*
X76704819Y-104523094D01*
X76704819Y-104523094D02*
X76704819Y-104284999D01*
X76704819Y-104284999D02*
X76752438Y-104142142D01*
X76752438Y-104142142D02*
X76847676Y-104046904D01*
X76847676Y-104046904D02*
X76942914Y-103999285D01*
X76942914Y-103999285D02*
X77133390Y-103951666D01*
X77133390Y-103951666D02*
X77276247Y-103951666D01*
X77276247Y-103951666D02*
X77466723Y-103999285D01*
X77466723Y-103999285D02*
X77561961Y-104046904D01*
X77561961Y-104046904D02*
X77657200Y-104142142D01*
X77657200Y-104142142D02*
X77704819Y-104284999D01*
X77704819Y-104284999D02*
X77704819Y-104523094D01*
X76704819Y-103618332D02*
X76704819Y-102999285D01*
X76704819Y-102999285D02*
X77085771Y-103332618D01*
X77085771Y-103332618D02*
X77085771Y-103189761D01*
X77085771Y-103189761D02*
X77133390Y-103094523D01*
X77133390Y-103094523D02*
X77181009Y-103046904D01*
X77181009Y-103046904D02*
X77276247Y-102999285D01*
X77276247Y-102999285D02*
X77514342Y-102999285D01*
X77514342Y-102999285D02*
X77609580Y-103046904D01*
X77609580Y-103046904D02*
X77657200Y-103094523D01*
X77657200Y-103094523D02*
X77704819Y-103189761D01*
X77704819Y-103189761D02*
X77704819Y-103475475D01*
X77704819Y-103475475D02*
X77657200Y-103570713D01*
X77657200Y-103570713D02*
X77609580Y-103618332D01*
X100511905Y-61454819D02*
X100511905Y-60454819D01*
X100511905Y-60454819D02*
X100750000Y-60454819D01*
X100750000Y-60454819D02*
X100892857Y-60502438D01*
X100892857Y-60502438D02*
X100988095Y-60597676D01*
X100988095Y-60597676D02*
X101035714Y-60692914D01*
X101035714Y-60692914D02*
X101083333Y-60883390D01*
X101083333Y-60883390D02*
X101083333Y-61026247D01*
X101083333Y-61026247D02*
X101035714Y-61216723D01*
X101035714Y-61216723D02*
X100988095Y-61311961D01*
X100988095Y-61311961D02*
X100892857Y-61407200D01*
X100892857Y-61407200D02*
X100750000Y-61454819D01*
X100750000Y-61454819D02*
X100511905Y-61454819D01*
X102083333Y-61359580D02*
X102035714Y-61407200D01*
X102035714Y-61407200D02*
X101892857Y-61454819D01*
X101892857Y-61454819D02*
X101797619Y-61454819D01*
X101797619Y-61454819D02*
X101654762Y-61407200D01*
X101654762Y-61407200D02*
X101559524Y-61311961D01*
X101559524Y-61311961D02*
X101511905Y-61216723D01*
X101511905Y-61216723D02*
X101464286Y-61026247D01*
X101464286Y-61026247D02*
X101464286Y-60883390D01*
X101464286Y-60883390D02*
X101511905Y-60692914D01*
X101511905Y-60692914D02*
X101559524Y-60597676D01*
X101559524Y-60597676D02*
X101654762Y-60502438D01*
X101654762Y-60502438D02*
X101797619Y-60454819D01*
X101797619Y-60454819D02*
X101892857Y-60454819D01*
X101892857Y-60454819D02*
X102035714Y-60502438D01*
X102035714Y-60502438D02*
X102083333Y-60550057D01*
X102416667Y-60454819D02*
X103083333Y-60454819D01*
X103083333Y-60454819D02*
X102654762Y-61454819D01*
X99107142Y-101204819D02*
X98773809Y-100728628D01*
X98535714Y-101204819D02*
X98535714Y-100204819D01*
X98535714Y-100204819D02*
X98916666Y-100204819D01*
X98916666Y-100204819D02*
X99011904Y-100252438D01*
X99011904Y-100252438D02*
X99059523Y-100300057D01*
X99059523Y-100300057D02*
X99107142Y-100395295D01*
X99107142Y-100395295D02*
X99107142Y-100538152D01*
X99107142Y-100538152D02*
X99059523Y-100633390D01*
X99059523Y-100633390D02*
X99011904Y-100681009D01*
X99011904Y-100681009D02*
X98916666Y-100728628D01*
X98916666Y-100728628D02*
X98535714Y-100728628D01*
X100059523Y-101204819D02*
X99488095Y-101204819D01*
X99773809Y-101204819D02*
X99773809Y-100204819D01*
X99773809Y-100204819D02*
X99678571Y-100347676D01*
X99678571Y-100347676D02*
X99583333Y-100442914D01*
X99583333Y-100442914D02*
X99488095Y-100490533D01*
X100916666Y-100204819D02*
X100726190Y-100204819D01*
X100726190Y-100204819D02*
X100630952Y-100252438D01*
X100630952Y-100252438D02*
X100583333Y-100300057D01*
X100583333Y-100300057D02*
X100488095Y-100442914D01*
X100488095Y-100442914D02*
X100440476Y-100633390D01*
X100440476Y-100633390D02*
X100440476Y-101014342D01*
X100440476Y-101014342D02*
X100488095Y-101109580D01*
X100488095Y-101109580D02*
X100535714Y-101157200D01*
X100535714Y-101157200D02*
X100630952Y-101204819D01*
X100630952Y-101204819D02*
X100821428Y-101204819D01*
X100821428Y-101204819D02*
X100916666Y-101157200D01*
X100916666Y-101157200D02*
X100964285Y-101109580D01*
X100964285Y-101109580D02*
X101011904Y-101014342D01*
X101011904Y-101014342D02*
X101011904Y-100776247D01*
X101011904Y-100776247D02*
X100964285Y-100681009D01*
X100964285Y-100681009D02*
X100916666Y-100633390D01*
X100916666Y-100633390D02*
X100821428Y-100585771D01*
X100821428Y-100585771D02*
X100630952Y-100585771D01*
X100630952Y-100585771D02*
X100535714Y-100633390D01*
X100535714Y-100633390D02*
X100488095Y-100681009D01*
X100488095Y-100681009D02*
X100440476Y-100776247D01*
X91704819Y-100142857D02*
X91228628Y-100476190D01*
X91704819Y-100714285D02*
X90704819Y-100714285D01*
X90704819Y-100714285D02*
X90704819Y-100333333D01*
X90704819Y-100333333D02*
X90752438Y-100238095D01*
X90752438Y-100238095D02*
X90800057Y-100190476D01*
X90800057Y-100190476D02*
X90895295Y-100142857D01*
X90895295Y-100142857D02*
X91038152Y-100142857D01*
X91038152Y-100142857D02*
X91133390Y-100190476D01*
X91133390Y-100190476D02*
X91181009Y-100238095D01*
X91181009Y-100238095D02*
X91228628Y-100333333D01*
X91228628Y-100333333D02*
X91228628Y-100714285D01*
X91704819Y-99190476D02*
X91704819Y-99761904D01*
X91704819Y-99476190D02*
X90704819Y-99476190D01*
X90704819Y-99476190D02*
X90847676Y-99571428D01*
X90847676Y-99571428D02*
X90942914Y-99666666D01*
X90942914Y-99666666D02*
X90990533Y-99761904D01*
X90800057Y-98809523D02*
X90752438Y-98761904D01*
X90752438Y-98761904D02*
X90704819Y-98666666D01*
X90704819Y-98666666D02*
X90704819Y-98428571D01*
X90704819Y-98428571D02*
X90752438Y-98333333D01*
X90752438Y-98333333D02*
X90800057Y-98285714D01*
X90800057Y-98285714D02*
X90895295Y-98238095D01*
X90895295Y-98238095D02*
X90990533Y-98238095D01*
X90990533Y-98238095D02*
X91133390Y-98285714D01*
X91133390Y-98285714D02*
X91704819Y-98857142D01*
X91704819Y-98857142D02*
X91704819Y-98238095D01*
X83204819Y-63416666D02*
X82728628Y-63749999D01*
X83204819Y-63988094D02*
X82204819Y-63988094D01*
X82204819Y-63988094D02*
X82204819Y-63607142D01*
X82204819Y-63607142D02*
X82252438Y-63511904D01*
X82252438Y-63511904D02*
X82300057Y-63464285D01*
X82300057Y-63464285D02*
X82395295Y-63416666D01*
X82395295Y-63416666D02*
X82538152Y-63416666D01*
X82538152Y-63416666D02*
X82633390Y-63464285D01*
X82633390Y-63464285D02*
X82681009Y-63511904D01*
X82681009Y-63511904D02*
X82728628Y-63607142D01*
X82728628Y-63607142D02*
X82728628Y-63988094D01*
X82204819Y-62511904D02*
X82204819Y-62988094D01*
X82204819Y-62988094D02*
X82681009Y-63035713D01*
X82681009Y-63035713D02*
X82633390Y-62988094D01*
X82633390Y-62988094D02*
X82585771Y-62892856D01*
X82585771Y-62892856D02*
X82585771Y-62654761D01*
X82585771Y-62654761D02*
X82633390Y-62559523D01*
X82633390Y-62559523D02*
X82681009Y-62511904D01*
X82681009Y-62511904D02*
X82776247Y-62464285D01*
X82776247Y-62464285D02*
X83014342Y-62464285D01*
X83014342Y-62464285D02*
X83109580Y-62511904D01*
X83109580Y-62511904D02*
X83157200Y-62559523D01*
X83157200Y-62559523D02*
X83204819Y-62654761D01*
X83204819Y-62654761D02*
X83204819Y-62892856D01*
X83204819Y-62892856D02*
X83157200Y-62988094D01*
X83157200Y-62988094D02*
X83109580Y-63035713D01*
X92333333Y-55954819D02*
X92000000Y-55478628D01*
X91761905Y-55954819D02*
X91761905Y-54954819D01*
X91761905Y-54954819D02*
X92142857Y-54954819D01*
X92142857Y-54954819D02*
X92238095Y-55002438D01*
X92238095Y-55002438D02*
X92285714Y-55050057D01*
X92285714Y-55050057D02*
X92333333Y-55145295D01*
X92333333Y-55145295D02*
X92333333Y-55288152D01*
X92333333Y-55288152D02*
X92285714Y-55383390D01*
X92285714Y-55383390D02*
X92238095Y-55431009D01*
X92238095Y-55431009D02*
X92142857Y-55478628D01*
X92142857Y-55478628D02*
X91761905Y-55478628D01*
X92904762Y-55383390D02*
X92809524Y-55335771D01*
X92809524Y-55335771D02*
X92761905Y-55288152D01*
X92761905Y-55288152D02*
X92714286Y-55192914D01*
X92714286Y-55192914D02*
X92714286Y-55145295D01*
X92714286Y-55145295D02*
X92761905Y-55050057D01*
X92761905Y-55050057D02*
X92809524Y-55002438D01*
X92809524Y-55002438D02*
X92904762Y-54954819D01*
X92904762Y-54954819D02*
X93095238Y-54954819D01*
X93095238Y-54954819D02*
X93190476Y-55002438D01*
X93190476Y-55002438D02*
X93238095Y-55050057D01*
X93238095Y-55050057D02*
X93285714Y-55145295D01*
X93285714Y-55145295D02*
X93285714Y-55192914D01*
X93285714Y-55192914D02*
X93238095Y-55288152D01*
X93238095Y-55288152D02*
X93190476Y-55335771D01*
X93190476Y-55335771D02*
X93095238Y-55383390D01*
X93095238Y-55383390D02*
X92904762Y-55383390D01*
X92904762Y-55383390D02*
X92809524Y-55431009D01*
X92809524Y-55431009D02*
X92761905Y-55478628D01*
X92761905Y-55478628D02*
X92714286Y-55573866D01*
X92714286Y-55573866D02*
X92714286Y-55764342D01*
X92714286Y-55764342D02*
X92761905Y-55859580D01*
X92761905Y-55859580D02*
X92809524Y-55907200D01*
X92809524Y-55907200D02*
X92904762Y-55954819D01*
X92904762Y-55954819D02*
X93095238Y-55954819D01*
X93095238Y-55954819D02*
X93190476Y-55907200D01*
X93190476Y-55907200D02*
X93238095Y-55859580D01*
X93238095Y-55859580D02*
X93285714Y-55764342D01*
X93285714Y-55764342D02*
X93285714Y-55573866D01*
X93285714Y-55573866D02*
X93238095Y-55478628D01*
X93238095Y-55478628D02*
X93190476Y-55431009D01*
X93190476Y-55431009D02*
X93095238Y-55383390D01*
X86384819Y-104521666D02*
X85908628Y-104854999D01*
X86384819Y-105093094D02*
X85384819Y-105093094D01*
X85384819Y-105093094D02*
X85384819Y-104712142D01*
X85384819Y-104712142D02*
X85432438Y-104616904D01*
X85432438Y-104616904D02*
X85480057Y-104569285D01*
X85480057Y-104569285D02*
X85575295Y-104521666D01*
X85575295Y-104521666D02*
X85718152Y-104521666D01*
X85718152Y-104521666D02*
X85813390Y-104569285D01*
X85813390Y-104569285D02*
X85861009Y-104616904D01*
X85861009Y-104616904D02*
X85908628Y-104712142D01*
X85908628Y-104712142D02*
X85908628Y-105093094D01*
X85384819Y-104188332D02*
X85384819Y-103569285D01*
X85384819Y-103569285D02*
X85765771Y-103902618D01*
X85765771Y-103902618D02*
X85765771Y-103759761D01*
X85765771Y-103759761D02*
X85813390Y-103664523D01*
X85813390Y-103664523D02*
X85861009Y-103616904D01*
X85861009Y-103616904D02*
X85956247Y-103569285D01*
X85956247Y-103569285D02*
X86194342Y-103569285D01*
X86194342Y-103569285D02*
X86289580Y-103616904D01*
X86289580Y-103616904D02*
X86337200Y-103664523D01*
X86337200Y-103664523D02*
X86384819Y-103759761D01*
X86384819Y-103759761D02*
X86384819Y-104045475D01*
X86384819Y-104045475D02*
X86337200Y-104140713D01*
X86337200Y-104140713D02*
X86289580Y-104188332D01*
X78274819Y-65416666D02*
X78274819Y-65892856D01*
X78274819Y-65892856D02*
X77274819Y-65892856D01*
X78274819Y-64559523D02*
X78274819Y-65130951D01*
X78274819Y-64845237D02*
X77274819Y-64845237D01*
X77274819Y-64845237D02*
X77417676Y-64940475D01*
X77417676Y-64940475D02*
X77512914Y-65035713D01*
X77512914Y-65035713D02*
X77560533Y-65130951D01*
X83454819Y-101866904D02*
X84264342Y-101866904D01*
X84264342Y-101866904D02*
X84359580Y-101819285D01*
X84359580Y-101819285D02*
X84407200Y-101771666D01*
X84407200Y-101771666D02*
X84454819Y-101676428D01*
X84454819Y-101676428D02*
X84454819Y-101485952D01*
X84454819Y-101485952D02*
X84407200Y-101390714D01*
X84407200Y-101390714D02*
X84359580Y-101343095D01*
X84359580Y-101343095D02*
X84264342Y-101295476D01*
X84264342Y-101295476D02*
X83454819Y-101295476D01*
X83550057Y-100866904D02*
X83502438Y-100819285D01*
X83502438Y-100819285D02*
X83454819Y-100724047D01*
X83454819Y-100724047D02*
X83454819Y-100485952D01*
X83454819Y-100485952D02*
X83502438Y-100390714D01*
X83502438Y-100390714D02*
X83550057Y-100343095D01*
X83550057Y-100343095D02*
X83645295Y-100295476D01*
X83645295Y-100295476D02*
X83740533Y-100295476D01*
X83740533Y-100295476D02*
X83883390Y-100343095D01*
X83883390Y-100343095D02*
X84454819Y-100914523D01*
X84454819Y-100914523D02*
X84454819Y-100295476D01*
X76416666Y-105604819D02*
X76416666Y-106319104D01*
X76416666Y-106319104D02*
X76369047Y-106461961D01*
X76369047Y-106461961D02*
X76273809Y-106557200D01*
X76273809Y-106557200D02*
X76130952Y-106604819D01*
X76130952Y-106604819D02*
X76035714Y-106604819D01*
X77416666Y-106604819D02*
X76845238Y-106604819D01*
X77130952Y-106604819D02*
X77130952Y-105604819D01*
X77130952Y-105604819D02*
X77035714Y-105747676D01*
X77035714Y-105747676D02*
X76940476Y-105842914D01*
X76940476Y-105842914D02*
X76845238Y-105890533D01*
X92357142Y-60784819D02*
X92023809Y-60308628D01*
X91785714Y-60784819D02*
X91785714Y-59784819D01*
X91785714Y-59784819D02*
X92166666Y-59784819D01*
X92166666Y-59784819D02*
X92261904Y-59832438D01*
X92261904Y-59832438D02*
X92309523Y-59880057D01*
X92309523Y-59880057D02*
X92357142Y-59975295D01*
X92357142Y-59975295D02*
X92357142Y-60118152D01*
X92357142Y-60118152D02*
X92309523Y-60213390D01*
X92309523Y-60213390D02*
X92261904Y-60261009D01*
X92261904Y-60261009D02*
X92166666Y-60308628D01*
X92166666Y-60308628D02*
X91785714Y-60308628D01*
X93309523Y-60784819D02*
X92738095Y-60784819D01*
X93023809Y-60784819D02*
X93023809Y-59784819D01*
X93023809Y-59784819D02*
X92928571Y-59927676D01*
X92928571Y-59927676D02*
X92833333Y-60022914D01*
X92833333Y-60022914D02*
X92738095Y-60070533D01*
X93928571Y-59784819D02*
X94023809Y-59784819D01*
X94023809Y-59784819D02*
X94119047Y-59832438D01*
X94119047Y-59832438D02*
X94166666Y-59880057D01*
X94166666Y-59880057D02*
X94214285Y-59975295D01*
X94214285Y-59975295D02*
X94261904Y-60165771D01*
X94261904Y-60165771D02*
X94261904Y-60403866D01*
X94261904Y-60403866D02*
X94214285Y-60594342D01*
X94214285Y-60594342D02*
X94166666Y-60689580D01*
X94166666Y-60689580D02*
X94119047Y-60737200D01*
X94119047Y-60737200D02*
X94023809Y-60784819D01*
X94023809Y-60784819D02*
X93928571Y-60784819D01*
X93928571Y-60784819D02*
X93833333Y-60737200D01*
X93833333Y-60737200D02*
X93785714Y-60689580D01*
X93785714Y-60689580D02*
X93738095Y-60594342D01*
X93738095Y-60594342D02*
X93690476Y-60403866D01*
X93690476Y-60403866D02*
X93690476Y-60165771D01*
X93690476Y-60165771D02*
X93738095Y-59975295D01*
X93738095Y-59975295D02*
X93785714Y-59880057D01*
X93785714Y-59880057D02*
X93833333Y-59832438D01*
X93833333Y-59832438D02*
X93928571Y-59784819D01*
X108416666Y-50954819D02*
X108416666Y-51669104D01*
X108416666Y-51669104D02*
X108369047Y-51811961D01*
X108369047Y-51811961D02*
X108273809Y-51907200D01*
X108273809Y-51907200D02*
X108130952Y-51954819D01*
X108130952Y-51954819D02*
X108035714Y-51954819D01*
X109321428Y-51288152D02*
X109321428Y-51954819D01*
X109083333Y-50907200D02*
X108845238Y-51621485D01*
X108845238Y-51621485D02*
X109464285Y-51621485D01*
X63416666Y-50954819D02*
X63416666Y-51669104D01*
X63416666Y-51669104D02*
X63369047Y-51811961D01*
X63369047Y-51811961D02*
X63273809Y-51907200D01*
X63273809Y-51907200D02*
X63130952Y-51954819D01*
X63130952Y-51954819D02*
X63035714Y-51954819D01*
X64369047Y-50954819D02*
X63892857Y-50954819D01*
X63892857Y-50954819D02*
X63845238Y-51431009D01*
X63845238Y-51431009D02*
X63892857Y-51383390D01*
X63892857Y-51383390D02*
X63988095Y-51335771D01*
X63988095Y-51335771D02*
X64226190Y-51335771D01*
X64226190Y-51335771D02*
X64321428Y-51383390D01*
X64321428Y-51383390D02*
X64369047Y-51431009D01*
X64369047Y-51431009D02*
X64416666Y-51526247D01*
X64416666Y-51526247D02*
X64416666Y-51764342D01*
X64416666Y-51764342D02*
X64369047Y-51859580D01*
X64369047Y-51859580D02*
X64321428Y-51907200D01*
X64321428Y-51907200D02*
X64226190Y-51954819D01*
X64226190Y-51954819D02*
X63988095Y-51954819D01*
X63988095Y-51954819D02*
X63892857Y-51907200D01*
X63892857Y-51907200D02*
X63845238Y-51859580D01*
X90454819Y-100964285D02*
X89454819Y-100964285D01*
X89454819Y-100964285D02*
X89454819Y-100726190D01*
X89454819Y-100726190D02*
X89502438Y-100583333D01*
X89502438Y-100583333D02*
X89597676Y-100488095D01*
X89597676Y-100488095D02*
X89692914Y-100440476D01*
X89692914Y-100440476D02*
X89883390Y-100392857D01*
X89883390Y-100392857D02*
X90026247Y-100392857D01*
X90026247Y-100392857D02*
X90216723Y-100440476D01*
X90216723Y-100440476D02*
X90311961Y-100488095D01*
X90311961Y-100488095D02*
X90407200Y-100583333D01*
X90407200Y-100583333D02*
X90454819Y-100726190D01*
X90454819Y-100726190D02*
X90454819Y-100964285D01*
X90359580Y-99392857D02*
X90407200Y-99440476D01*
X90407200Y-99440476D02*
X90454819Y-99583333D01*
X90454819Y-99583333D02*
X90454819Y-99678571D01*
X90454819Y-99678571D02*
X90407200Y-99821428D01*
X90407200Y-99821428D02*
X90311961Y-99916666D01*
X90311961Y-99916666D02*
X90216723Y-99964285D01*
X90216723Y-99964285D02*
X90026247Y-100011904D01*
X90026247Y-100011904D02*
X89883390Y-100011904D01*
X89883390Y-100011904D02*
X89692914Y-99964285D01*
X89692914Y-99964285D02*
X89597676Y-99916666D01*
X89597676Y-99916666D02*
X89502438Y-99821428D01*
X89502438Y-99821428D02*
X89454819Y-99678571D01*
X89454819Y-99678571D02*
X89454819Y-99583333D01*
X89454819Y-99583333D02*
X89502438Y-99440476D01*
X89502438Y-99440476D02*
X89550057Y-99392857D01*
X90454819Y-98440476D02*
X90454819Y-99011904D01*
X90454819Y-98726190D02*
X89454819Y-98726190D01*
X89454819Y-98726190D02*
X89597676Y-98821428D01*
X89597676Y-98821428D02*
X89692914Y-98916666D01*
X89692914Y-98916666D02*
X89740533Y-99011904D01*
X90454819Y-97488095D02*
X90454819Y-98059523D01*
X90454819Y-97773809D02*
X89454819Y-97773809D01*
X89454819Y-97773809D02*
X89597676Y-97869047D01*
X89597676Y-97869047D02*
X89692914Y-97964285D01*
X89692914Y-97964285D02*
X89740533Y-98059523D01*
X77704819Y-96738094D02*
X76704819Y-96738094D01*
X76704819Y-96738094D02*
X76704819Y-96499999D01*
X76704819Y-96499999D02*
X76752438Y-96357142D01*
X76752438Y-96357142D02*
X76847676Y-96261904D01*
X76847676Y-96261904D02*
X76942914Y-96214285D01*
X76942914Y-96214285D02*
X77133390Y-96166666D01*
X77133390Y-96166666D02*
X77276247Y-96166666D01*
X77276247Y-96166666D02*
X77466723Y-96214285D01*
X77466723Y-96214285D02*
X77561961Y-96261904D01*
X77561961Y-96261904D02*
X77657200Y-96357142D01*
X77657200Y-96357142D02*
X77704819Y-96499999D01*
X77704819Y-96499999D02*
X77704819Y-96738094D01*
X77609580Y-95166666D02*
X77657200Y-95214285D01*
X77657200Y-95214285D02*
X77704819Y-95357142D01*
X77704819Y-95357142D02*
X77704819Y-95452380D01*
X77704819Y-95452380D02*
X77657200Y-95595237D01*
X77657200Y-95595237D02*
X77561961Y-95690475D01*
X77561961Y-95690475D02*
X77466723Y-95738094D01*
X77466723Y-95738094D02*
X77276247Y-95785713D01*
X77276247Y-95785713D02*
X77133390Y-95785713D01*
X77133390Y-95785713D02*
X76942914Y-95738094D01*
X76942914Y-95738094D02*
X76847676Y-95690475D01*
X76847676Y-95690475D02*
X76752438Y-95595237D01*
X76752438Y-95595237D02*
X76704819Y-95452380D01*
X76704819Y-95452380D02*
X76704819Y-95357142D01*
X76704819Y-95357142D02*
X76752438Y-95214285D01*
X76752438Y-95214285D02*
X76800057Y-95166666D01*
X77704819Y-94214285D02*
X77704819Y-94785713D01*
X77704819Y-94499999D02*
X76704819Y-94499999D01*
X76704819Y-94499999D02*
X76847676Y-94595237D01*
X76847676Y-94595237D02*
X76942914Y-94690475D01*
X76942914Y-94690475D02*
X76990533Y-94785713D01*
X71511905Y-112704819D02*
X71511905Y-111704819D01*
X71511905Y-111704819D02*
X71750000Y-111704819D01*
X71750000Y-111704819D02*
X71892857Y-111752438D01*
X71892857Y-111752438D02*
X71988095Y-111847676D01*
X71988095Y-111847676D02*
X72035714Y-111942914D01*
X72035714Y-111942914D02*
X72083333Y-112133390D01*
X72083333Y-112133390D02*
X72083333Y-112276247D01*
X72083333Y-112276247D02*
X72035714Y-112466723D01*
X72035714Y-112466723D02*
X71988095Y-112561961D01*
X71988095Y-112561961D02*
X71892857Y-112657200D01*
X71892857Y-112657200D02*
X71750000Y-112704819D01*
X71750000Y-112704819D02*
X71511905Y-112704819D01*
X73035714Y-112704819D02*
X72464286Y-112704819D01*
X72750000Y-112704819D02*
X72750000Y-111704819D01*
X72750000Y-111704819D02*
X72654762Y-111847676D01*
X72654762Y-111847676D02*
X72559524Y-111942914D01*
X72559524Y-111942914D02*
X72464286Y-111990533D01*
X72333333Y-100359580D02*
X72285714Y-100407200D01*
X72285714Y-100407200D02*
X72142857Y-100454819D01*
X72142857Y-100454819D02*
X72047619Y-100454819D01*
X72047619Y-100454819D02*
X71904762Y-100407200D01*
X71904762Y-100407200D02*
X71809524Y-100311961D01*
X71809524Y-100311961D02*
X71761905Y-100216723D01*
X71761905Y-100216723D02*
X71714286Y-100026247D01*
X71714286Y-100026247D02*
X71714286Y-99883390D01*
X71714286Y-99883390D02*
X71761905Y-99692914D01*
X71761905Y-99692914D02*
X71809524Y-99597676D01*
X71809524Y-99597676D02*
X71904762Y-99502438D01*
X71904762Y-99502438D02*
X72047619Y-99454819D01*
X72047619Y-99454819D02*
X72142857Y-99454819D01*
X72142857Y-99454819D02*
X72285714Y-99502438D01*
X72285714Y-99502438D02*
X72333333Y-99550057D01*
X72714286Y-99550057D02*
X72761905Y-99502438D01*
X72761905Y-99502438D02*
X72857143Y-99454819D01*
X72857143Y-99454819D02*
X73095238Y-99454819D01*
X73095238Y-99454819D02*
X73190476Y-99502438D01*
X73190476Y-99502438D02*
X73238095Y-99550057D01*
X73238095Y-99550057D02*
X73285714Y-99645295D01*
X73285714Y-99645295D02*
X73285714Y-99740533D01*
X73285714Y-99740533D02*
X73238095Y-99883390D01*
X73238095Y-99883390D02*
X72666667Y-100454819D01*
X72666667Y-100454819D02*
X73285714Y-100454819D01*
X99107142Y-99954819D02*
X98773809Y-99478628D01*
X98535714Y-99954819D02*
X98535714Y-98954819D01*
X98535714Y-98954819D02*
X98916666Y-98954819D01*
X98916666Y-98954819D02*
X99011904Y-99002438D01*
X99011904Y-99002438D02*
X99059523Y-99050057D01*
X99059523Y-99050057D02*
X99107142Y-99145295D01*
X99107142Y-99145295D02*
X99107142Y-99288152D01*
X99107142Y-99288152D02*
X99059523Y-99383390D01*
X99059523Y-99383390D02*
X99011904Y-99431009D01*
X99011904Y-99431009D02*
X98916666Y-99478628D01*
X98916666Y-99478628D02*
X98535714Y-99478628D01*
X100059523Y-99954819D02*
X99488095Y-99954819D01*
X99773809Y-99954819D02*
X99773809Y-98954819D01*
X99773809Y-98954819D02*
X99678571Y-99097676D01*
X99678571Y-99097676D02*
X99583333Y-99192914D01*
X99583333Y-99192914D02*
X99488095Y-99240533D01*
X101011904Y-99954819D02*
X100440476Y-99954819D01*
X100726190Y-99954819D02*
X100726190Y-98954819D01*
X100726190Y-98954819D02*
X100630952Y-99097676D01*
X100630952Y-99097676D02*
X100535714Y-99192914D01*
X100535714Y-99192914D02*
X100440476Y-99240533D01*
X83609580Y-61416666D02*
X83657200Y-61464285D01*
X83657200Y-61464285D02*
X83704819Y-61607142D01*
X83704819Y-61607142D02*
X83704819Y-61702380D01*
X83704819Y-61702380D02*
X83657200Y-61845237D01*
X83657200Y-61845237D02*
X83561961Y-61940475D01*
X83561961Y-61940475D02*
X83466723Y-61988094D01*
X83466723Y-61988094D02*
X83276247Y-62035713D01*
X83276247Y-62035713D02*
X83133390Y-62035713D01*
X83133390Y-62035713D02*
X82942914Y-61988094D01*
X82942914Y-61988094D02*
X82847676Y-61940475D01*
X82847676Y-61940475D02*
X82752438Y-61845237D01*
X82752438Y-61845237D02*
X82704819Y-61702380D01*
X82704819Y-61702380D02*
X82704819Y-61607142D01*
X82704819Y-61607142D02*
X82752438Y-61464285D01*
X82752438Y-61464285D02*
X82800057Y-61416666D01*
X82704819Y-61083332D02*
X82704819Y-60464285D01*
X82704819Y-60464285D02*
X83085771Y-60797618D01*
X83085771Y-60797618D02*
X83085771Y-60654761D01*
X83085771Y-60654761D02*
X83133390Y-60559523D01*
X83133390Y-60559523D02*
X83181009Y-60511904D01*
X83181009Y-60511904D02*
X83276247Y-60464285D01*
X83276247Y-60464285D02*
X83514342Y-60464285D01*
X83514342Y-60464285D02*
X83609580Y-60511904D01*
X83609580Y-60511904D02*
X83657200Y-60559523D01*
X83657200Y-60559523D02*
X83704819Y-60654761D01*
X83704819Y-60654761D02*
X83704819Y-60940475D01*
X83704819Y-60940475D02*
X83657200Y-61035713D01*
X83657200Y-61035713D02*
X83609580Y-61083332D01*
X97583333Y-97024819D02*
X97107143Y-97024819D01*
X97107143Y-97024819D02*
X97107143Y-96024819D01*
X97869048Y-96120057D02*
X97916667Y-96072438D01*
X97916667Y-96072438D02*
X98011905Y-96024819D01*
X98011905Y-96024819D02*
X98250000Y-96024819D01*
X98250000Y-96024819D02*
X98345238Y-96072438D01*
X98345238Y-96072438D02*
X98392857Y-96120057D01*
X98392857Y-96120057D02*
X98440476Y-96215295D01*
X98440476Y-96215295D02*
X98440476Y-96310533D01*
X98440476Y-96310533D02*
X98392857Y-96453390D01*
X98392857Y-96453390D02*
X97821429Y-97024819D01*
X97821429Y-97024819D02*
X98440476Y-97024819D01*
D11*
%TO.C,J2*%
X98950000Y-47130000D02*
X73430000Y-47130000D01*
X98950000Y-47130000D02*
X98950000Y-49730000D01*
X73430000Y-47130000D02*
X73430000Y-52330000D01*
X98950000Y-49730000D02*
X96350000Y-49730000D01*
X96350000Y-49730000D02*
X96350000Y-52330000D01*
X98950000Y-51000000D02*
X98950000Y-52330000D01*
X98950000Y-52330000D02*
X97620000Y-52330000D01*
X96350000Y-52330000D02*
X73430000Y-52330000D01*
%TO.C,SW1*%
X79550000Y-59000000D02*
X85950000Y-59000000D01*
X85950000Y-56200000D02*
X85950000Y-55000000D01*
X85950000Y-59000000D02*
X85950000Y-57800000D01*
X85950000Y-55000000D02*
X79550000Y-55000000D01*
X79550000Y-57800000D02*
X79550000Y-59000000D01*
X79550000Y-55000000D02*
X79550000Y-56200000D01*
%TO.C,DC6*%
X98912164Y-56890000D02*
X99127836Y-56890000D01*
X98912164Y-57610000D02*
X99127836Y-57610000D01*
%TO.C,U3*%
X71772500Y-93820000D02*
X71772500Y-87810000D01*
X78592500Y-91570000D02*
X78592500Y-87810000D01*
X71772500Y-87810000D02*
X73032500Y-87810000D01*
X78592500Y-87810000D02*
X77332500Y-87810000D01*
%TO.C,R4*%
X94737258Y-63522500D02*
X94262742Y-63522500D01*
X94737258Y-62477500D02*
X94262742Y-62477500D01*
%TO.C,DC3*%
X83107836Y-60110000D02*
X82892164Y-60110000D01*
X83107836Y-59390000D02*
X82892164Y-59390000D01*
%TO.C,Y2*%
X88050000Y-60090000D02*
X85350000Y-60090000D01*
X88050000Y-62390000D02*
X88050000Y-60090000D01*
%TO.C,R15*%
X97096359Y-101620000D02*
X97403641Y-101620000D01*
X97096359Y-102380000D02*
X97403641Y-102380000D01*
%TO.C,U1*%
X93435000Y-69890000D02*
X92735000Y-69890000D01*
X92735000Y-69890000D02*
X92735000Y-68525000D01*
X79215000Y-69890000D02*
X79915000Y-69890000D01*
X93435000Y-70590000D02*
X93435000Y-69890000D01*
X79215000Y-70590000D02*
X79215000Y-69890000D01*
X93435000Y-83410000D02*
X93435000Y-84110000D01*
X79215000Y-83410000D02*
X79215000Y-84110000D01*
X93435000Y-84110000D02*
X92735000Y-84110000D01*
X79215000Y-84110000D02*
X79915000Y-84110000D01*
%TO.C,R14*%
X97096359Y-102870000D02*
X97403641Y-102870000D01*
X97096359Y-103630000D02*
X97403641Y-103630000D01*
%TO.C,DC5*%
X98872164Y-59390000D02*
X99087836Y-59390000D01*
X98872164Y-60110000D02*
X99087836Y-60110000D01*
%TO.C,DC4*%
X98912164Y-58140000D02*
X99127836Y-58140000D01*
X98912164Y-58860000D02*
X99127836Y-58860000D01*
%TO.C,R13*%
X92880000Y-102286359D02*
X92880000Y-102593641D01*
X92120000Y-102286359D02*
X92120000Y-102593641D01*
%TO.C,DC8*%
X98892164Y-61890000D02*
X99107836Y-61890000D01*
X98892164Y-62610000D02*
X99107836Y-62610000D01*
%TO.C,R7*%
X94130000Y-86096359D02*
X94130000Y-86403641D01*
X93370000Y-86096359D02*
X93370000Y-86403641D01*
%TO.C,C8*%
X88910000Y-103063748D02*
X88910000Y-104486252D01*
X87090000Y-103063748D02*
X87090000Y-104486252D01*
%TO.C,D2*%
X91235000Y-57265000D02*
X89765000Y-57265000D01*
X89765000Y-57265000D02*
X89765000Y-59550000D01*
X91235000Y-59550000D02*
X91235000Y-57265000D01*
%TO.C,R1*%
X81630000Y-104431359D02*
X81630000Y-104738641D01*
X80870000Y-104431359D02*
X80870000Y-104738641D01*
%TO.C,R2*%
X83417500Y-104411359D02*
X83417500Y-104718641D01*
X82657500Y-104411359D02*
X82657500Y-104718641D01*
%TO.C,C5*%
X98313748Y-63590000D02*
X99736252Y-63590000D01*
X98313748Y-65410000D02*
X99736252Y-65410000D01*
%TO.C,R6*%
X74705000Y-115657742D02*
X74705000Y-116132258D01*
X73660000Y-115657742D02*
X73660000Y-116132258D01*
%TO.C,C6*%
X92840000Y-90436252D02*
X92840000Y-89013748D01*
X94660000Y-90436252D02*
X94660000Y-89013748D01*
%TO.C,C7*%
X75711252Y-84910000D02*
X74288748Y-84910000D01*
X75711252Y-83090000D02*
X74288748Y-83090000D01*
%TO.C,C1*%
X78686252Y-98910000D02*
X77263748Y-98910000D01*
X78686252Y-97090000D02*
X77263748Y-97090000D01*
%TO.C,C4*%
X89110000Y-61162164D02*
X89110000Y-61377836D01*
X88390000Y-61162164D02*
X88390000Y-61377836D01*
%TO.C,DC9*%
X80390000Y-65857836D02*
X80390000Y-65642164D01*
X81110000Y-65857836D02*
X81110000Y-65642164D01*
%TO.C,J3*%
X103130000Y-115780000D02*
X103130000Y-111330000D01*
X103130000Y-109930000D02*
X103130000Y-107630000D01*
X103130000Y-106230000D02*
X103130000Y-105510000D01*
X103130000Y-105510000D02*
X100450000Y-105510000D01*
X101650000Y-117150000D02*
X100790000Y-117150000D01*
X98150000Y-105510000D02*
X94480000Y-105510000D01*
X92180000Y-105510000D02*
X90950000Y-105510000D01*
X90950000Y-105510000D02*
X90950000Y-115330000D01*
%TO.C,D3*%
X80250000Y-101645000D02*
X78250000Y-101645000D01*
X80250000Y-101645000D02*
X80250000Y-105505000D01*
X78250000Y-101645000D02*
X78250000Y-105505000D01*
%TO.C,DC7*%
X98912164Y-60640000D02*
X99127836Y-60640000D01*
X98912164Y-61360000D02*
X99127836Y-61360000D01*
%TO.C,R16*%
X97096359Y-100370000D02*
X97403641Y-100370000D01*
X97096359Y-101130000D02*
X97403641Y-101130000D01*
%TO.C,R12*%
X91630000Y-102286359D02*
X91630000Y-102593641D01*
X90870000Y-102286359D02*
X90870000Y-102593641D01*
%TO.C,R5*%
X82227500Y-66162258D02*
X82227500Y-65687742D01*
X83272500Y-66162258D02*
X83272500Y-65687742D01*
%TO.C,R8*%
X89977500Y-55737258D02*
X89977500Y-55262742D01*
X91022500Y-55737258D02*
X91022500Y-55262742D01*
%TO.C,R3*%
X85022500Y-104117742D02*
X85022500Y-104592258D01*
X83977500Y-104117742D02*
X83977500Y-104592258D01*
%TO.C,L1*%
X78740000Y-65412779D02*
X78740000Y-65087221D01*
X79760000Y-65412779D02*
X79760000Y-65087221D01*
%TO.C,U2*%
X82937500Y-101875000D02*
X82937500Y-100275000D01*
X81137500Y-100275000D02*
X81137500Y-102175000D01*
%TO.C,J1*%
X77140000Y-112950000D02*
X77140000Y-110350000D01*
X77140000Y-115850000D02*
X77140000Y-117510000D01*
X77140000Y-117510000D02*
X85060000Y-117510000D01*
X77900000Y-108040000D02*
X79050000Y-108040000D01*
X79050000Y-107450000D02*
X79750000Y-107450000D01*
X79050000Y-108040000D02*
X79050000Y-107450000D01*
X83150000Y-108040000D02*
X84300000Y-108040000D01*
X85060000Y-110350000D02*
X85060000Y-112950000D01*
X85060000Y-117510000D02*
X85060000Y-115850000D01*
%TO.C,R10*%
X92846359Y-61120000D02*
X93153641Y-61120000D01*
X92846359Y-61880000D02*
X93153641Y-61880000D01*
%TO.C,J4*%
X106130000Y-52870000D02*
X106130000Y-116490000D01*
X106130000Y-52870000D02*
X108730000Y-52870000D01*
X106130000Y-116490000D02*
X111330000Y-116490000D01*
X108730000Y-52870000D02*
X108730000Y-55470000D01*
X108730000Y-55470000D02*
X111330000Y-55470000D01*
X110000000Y-52870000D02*
X111330000Y-52870000D01*
X111330000Y-52870000D02*
X111330000Y-54200000D01*
X111330000Y-55470000D02*
X111330000Y-116490000D01*
%TO.C,J5*%
X61380000Y-52880000D02*
X61380000Y-116500000D01*
X61380000Y-52880000D02*
X63980000Y-52880000D01*
X61380000Y-116500000D02*
X66580000Y-116500000D01*
X63980000Y-52880000D02*
X63980000Y-55480000D01*
X63980000Y-55480000D02*
X66580000Y-55480000D01*
X65250000Y-52880000D02*
X66580000Y-52880000D01*
X66580000Y-52880000D02*
X66580000Y-54210000D01*
X66580000Y-55480000D02*
X66580000Y-116500000D01*
%TO.C,DC11*%
X90360000Y-102362164D02*
X90360000Y-102577836D01*
X89640000Y-102362164D02*
X89640000Y-102577836D01*
%TO.C,DC1*%
X76360000Y-95392164D02*
X76360000Y-95607836D01*
X75640000Y-95392164D02*
X75640000Y-95607836D01*
%TO.C,DC2*%
X74860000Y-95372164D02*
X74860000Y-95587836D01*
X74140000Y-95372164D02*
X74140000Y-95587836D01*
%TO.C,D1*%
X73447500Y-113842500D02*
X74917500Y-113842500D01*
X74917500Y-113842500D02*
X74917500Y-111557500D01*
X73447500Y-111557500D02*
X73447500Y-113842500D01*
%TO.C,C2*%
X71813748Y-97090000D02*
X73236252Y-97090000D01*
X71813748Y-98910000D02*
X73236252Y-98910000D01*
%TO.C,R11*%
X97106359Y-99120000D02*
X97413641Y-99120000D01*
X97106359Y-99880000D02*
X97413641Y-99880000D01*
%TO.C,C3*%
X84860000Y-61062164D02*
X84860000Y-61277836D01*
X84140000Y-61062164D02*
X84140000Y-61277836D01*
%TO.C,L2*%
X97587221Y-97490000D02*
X97912779Y-97490000D01*
X97587221Y-98510000D02*
X97912779Y-98510000D01*
%TD*%
M02*
