%TF.GenerationSoftware,KiCad,Pcbnew,7.0.6*%
%TF.CreationDate,2023-07-17T14:53:01-07:00*%
%TF.ProjectId,pcb,7063622e-6b69-4636-9164-5f7063625858,rev?*%
%TF.SameCoordinates,Original*%
%TF.FileFunction,Drillmap*%
%TF.FilePolarity,Positive*%
%FSLAX45Y45*%
G04 Gerber Fmt 4.5, Leading zero omitted, Abs format (unit mm)*
G04 Created by KiCad (PCBNEW 7.0.6) date 2023-07-17 14:53:01*
%MOMM*%
%LPD*%
G01*
G04 APERTURE LIST*
%ADD10C,0.100000*%
%ADD11C,0.200000*%
%ADD12C,0.090000*%
G04 APERTURE END LIST*
D10*
X6075000Y-4500000D02*
X11200000Y-4500000D01*
X11200000Y-11800000D01*
X6075000Y-11800000D01*
X6075000Y-4500000D01*
D11*
D12*
X7845000Y-11105000D02*
X7935000Y-11195000D01*
X7935000Y-11105000D02*
X7845000Y-11195000D01*
X8285000Y-11105000D02*
X8375000Y-11195000D01*
X8375000Y-11105000D02*
X8285000Y-11195000D01*
D11*
X6330777Y-12116484D02*
X6330777Y-11916484D01*
X6330777Y-11916484D02*
X6378396Y-11916484D01*
X6378396Y-11916484D02*
X6406967Y-11926008D01*
X6406967Y-11926008D02*
X6426015Y-11945055D01*
X6426015Y-11945055D02*
X6435539Y-11964103D01*
X6435539Y-11964103D02*
X6445062Y-12002198D01*
X6445062Y-12002198D02*
X6445062Y-12030769D01*
X6445062Y-12030769D02*
X6435539Y-12068865D01*
X6435539Y-12068865D02*
X6426015Y-12087912D01*
X6426015Y-12087912D02*
X6406967Y-12106960D01*
X6406967Y-12106960D02*
X6378396Y-12116484D01*
X6378396Y-12116484D02*
X6330777Y-12116484D01*
X6530777Y-12116484D02*
X6530777Y-11983150D01*
X6530777Y-12021246D02*
X6540301Y-12002198D01*
X6540301Y-12002198D02*
X6549824Y-11992674D01*
X6549824Y-11992674D02*
X6568872Y-11983150D01*
X6568872Y-11983150D02*
X6587920Y-11983150D01*
X6654586Y-12116484D02*
X6654586Y-11983150D01*
X6654586Y-11916484D02*
X6645062Y-11926008D01*
X6645062Y-11926008D02*
X6654586Y-11935531D01*
X6654586Y-11935531D02*
X6664110Y-11926008D01*
X6664110Y-11926008D02*
X6654586Y-11916484D01*
X6654586Y-11916484D02*
X6654586Y-11935531D01*
X6778396Y-12116484D02*
X6759348Y-12106960D01*
X6759348Y-12106960D02*
X6749824Y-12087912D01*
X6749824Y-12087912D02*
X6749824Y-11916484D01*
X6883158Y-12116484D02*
X6864110Y-12106960D01*
X6864110Y-12106960D02*
X6854586Y-12087912D01*
X6854586Y-12087912D02*
X6854586Y-11916484D01*
X7111729Y-12116484D02*
X7111729Y-11916484D01*
X7111729Y-11916484D02*
X7178396Y-12059341D01*
X7178396Y-12059341D02*
X7245062Y-11916484D01*
X7245062Y-11916484D02*
X7245062Y-12116484D01*
X7426015Y-12116484D02*
X7426015Y-12011722D01*
X7426015Y-12011722D02*
X7416491Y-11992674D01*
X7416491Y-11992674D02*
X7397443Y-11983150D01*
X7397443Y-11983150D02*
X7359348Y-11983150D01*
X7359348Y-11983150D02*
X7340301Y-11992674D01*
X7426015Y-12106960D02*
X7406967Y-12116484D01*
X7406967Y-12116484D02*
X7359348Y-12116484D01*
X7359348Y-12116484D02*
X7340301Y-12106960D01*
X7340301Y-12106960D02*
X7330777Y-12087912D01*
X7330777Y-12087912D02*
X7330777Y-12068865D01*
X7330777Y-12068865D02*
X7340301Y-12049817D01*
X7340301Y-12049817D02*
X7359348Y-12040293D01*
X7359348Y-12040293D02*
X7406967Y-12040293D01*
X7406967Y-12040293D02*
X7426015Y-12030769D01*
X7521253Y-11983150D02*
X7521253Y-12183150D01*
X7521253Y-11992674D02*
X7540301Y-11983150D01*
X7540301Y-11983150D02*
X7578396Y-11983150D01*
X7578396Y-11983150D02*
X7597443Y-11992674D01*
X7597443Y-11992674D02*
X7606967Y-12002198D01*
X7606967Y-12002198D02*
X7616491Y-12021246D01*
X7616491Y-12021246D02*
X7616491Y-12078388D01*
X7616491Y-12078388D02*
X7606967Y-12097436D01*
X7606967Y-12097436D02*
X7597443Y-12106960D01*
X7597443Y-12106960D02*
X7578396Y-12116484D01*
X7578396Y-12116484D02*
X7540301Y-12116484D01*
X7540301Y-12116484D02*
X7521253Y-12106960D01*
X7702205Y-12097436D02*
X7711729Y-12106960D01*
X7711729Y-12106960D02*
X7702205Y-12116484D01*
X7702205Y-12116484D02*
X7692682Y-12106960D01*
X7692682Y-12106960D02*
X7702205Y-12097436D01*
X7702205Y-12097436D02*
X7702205Y-12116484D01*
X7702205Y-11992674D02*
X7711729Y-12002198D01*
X7711729Y-12002198D02*
X7702205Y-12011722D01*
X7702205Y-12011722D02*
X7692682Y-12002198D01*
X7692682Y-12002198D02*
X7702205Y-11992674D01*
X7702205Y-11992674D02*
X7702205Y-12011722D01*
D12*
X5980000Y-12400000D02*
X6070000Y-12490000D01*
X6070000Y-12400000D02*
X5980000Y-12490000D01*
D11*
X6368872Y-12336484D02*
X6387920Y-12336484D01*
X6387920Y-12336484D02*
X6406967Y-12346008D01*
X6406967Y-12346008D02*
X6416491Y-12355531D01*
X6416491Y-12355531D02*
X6426015Y-12374579D01*
X6426015Y-12374579D02*
X6435539Y-12412674D01*
X6435539Y-12412674D02*
X6435539Y-12460293D01*
X6435539Y-12460293D02*
X6426015Y-12498388D01*
X6426015Y-12498388D02*
X6416491Y-12517436D01*
X6416491Y-12517436D02*
X6406967Y-12526960D01*
X6406967Y-12526960D02*
X6387920Y-12536484D01*
X6387920Y-12536484D02*
X6368872Y-12536484D01*
X6368872Y-12536484D02*
X6349824Y-12526960D01*
X6349824Y-12526960D02*
X6340301Y-12517436D01*
X6340301Y-12517436D02*
X6330777Y-12498388D01*
X6330777Y-12498388D02*
X6321253Y-12460293D01*
X6321253Y-12460293D02*
X6321253Y-12412674D01*
X6321253Y-12412674D02*
X6330777Y-12374579D01*
X6330777Y-12374579D02*
X6340301Y-12355531D01*
X6340301Y-12355531D02*
X6349824Y-12346008D01*
X6349824Y-12346008D02*
X6368872Y-12336484D01*
X6521253Y-12517436D02*
X6530777Y-12526960D01*
X6530777Y-12526960D02*
X6521253Y-12536484D01*
X6521253Y-12536484D02*
X6511729Y-12526960D01*
X6511729Y-12526960D02*
X6521253Y-12517436D01*
X6521253Y-12517436D02*
X6521253Y-12536484D01*
X6626015Y-12536484D02*
X6664110Y-12536484D01*
X6664110Y-12536484D02*
X6683158Y-12526960D01*
X6683158Y-12526960D02*
X6692682Y-12517436D01*
X6692682Y-12517436D02*
X6711729Y-12488865D01*
X6711729Y-12488865D02*
X6721253Y-12450769D01*
X6721253Y-12450769D02*
X6721253Y-12374579D01*
X6721253Y-12374579D02*
X6711729Y-12355531D01*
X6711729Y-12355531D02*
X6702205Y-12346008D01*
X6702205Y-12346008D02*
X6683158Y-12336484D01*
X6683158Y-12336484D02*
X6645062Y-12336484D01*
X6645062Y-12336484D02*
X6626015Y-12346008D01*
X6626015Y-12346008D02*
X6616491Y-12355531D01*
X6616491Y-12355531D02*
X6606967Y-12374579D01*
X6606967Y-12374579D02*
X6606967Y-12422198D01*
X6606967Y-12422198D02*
X6616491Y-12441246D01*
X6616491Y-12441246D02*
X6626015Y-12450769D01*
X6626015Y-12450769D02*
X6645062Y-12460293D01*
X6645062Y-12460293D02*
X6683158Y-12460293D01*
X6683158Y-12460293D02*
X6702205Y-12450769D01*
X6702205Y-12450769D02*
X6711729Y-12441246D01*
X6711729Y-12441246D02*
X6721253Y-12422198D01*
X6845062Y-12336484D02*
X6864110Y-12336484D01*
X6864110Y-12336484D02*
X6883158Y-12346008D01*
X6883158Y-12346008D02*
X6892682Y-12355531D01*
X6892682Y-12355531D02*
X6902205Y-12374579D01*
X6902205Y-12374579D02*
X6911729Y-12412674D01*
X6911729Y-12412674D02*
X6911729Y-12460293D01*
X6911729Y-12460293D02*
X6902205Y-12498388D01*
X6902205Y-12498388D02*
X6892682Y-12517436D01*
X6892682Y-12517436D02*
X6883158Y-12526960D01*
X6883158Y-12526960D02*
X6864110Y-12536484D01*
X6864110Y-12536484D02*
X6845062Y-12536484D01*
X6845062Y-12536484D02*
X6826015Y-12526960D01*
X6826015Y-12526960D02*
X6816491Y-12517436D01*
X6816491Y-12517436D02*
X6806967Y-12498388D01*
X6806967Y-12498388D02*
X6797443Y-12460293D01*
X6797443Y-12460293D02*
X6797443Y-12412674D01*
X6797443Y-12412674D02*
X6806967Y-12374579D01*
X6806967Y-12374579D02*
X6816491Y-12355531D01*
X6816491Y-12355531D02*
X6826015Y-12346008D01*
X6826015Y-12346008D02*
X6845062Y-12336484D01*
X7035539Y-12336484D02*
X7054586Y-12336484D01*
X7054586Y-12336484D02*
X7073634Y-12346008D01*
X7073634Y-12346008D02*
X7083158Y-12355531D01*
X7083158Y-12355531D02*
X7092682Y-12374579D01*
X7092682Y-12374579D02*
X7102205Y-12412674D01*
X7102205Y-12412674D02*
X7102205Y-12460293D01*
X7102205Y-12460293D02*
X7092682Y-12498388D01*
X7092682Y-12498388D02*
X7083158Y-12517436D01*
X7083158Y-12517436D02*
X7073634Y-12526960D01*
X7073634Y-12526960D02*
X7054586Y-12536484D01*
X7054586Y-12536484D02*
X7035539Y-12536484D01*
X7035539Y-12536484D02*
X7016491Y-12526960D01*
X7016491Y-12526960D02*
X7006967Y-12517436D01*
X7006967Y-12517436D02*
X6997443Y-12498388D01*
X6997443Y-12498388D02*
X6987920Y-12460293D01*
X6987920Y-12460293D02*
X6987920Y-12412674D01*
X6987920Y-12412674D02*
X6997443Y-12374579D01*
X6997443Y-12374579D02*
X7006967Y-12355531D01*
X7006967Y-12355531D02*
X7016491Y-12346008D01*
X7016491Y-12346008D02*
X7035539Y-12336484D01*
X7187920Y-12536484D02*
X7187920Y-12403150D01*
X7187920Y-12422198D02*
X7197443Y-12412674D01*
X7197443Y-12412674D02*
X7216491Y-12403150D01*
X7216491Y-12403150D02*
X7245063Y-12403150D01*
X7245063Y-12403150D02*
X7264110Y-12412674D01*
X7264110Y-12412674D02*
X7273634Y-12431722D01*
X7273634Y-12431722D02*
X7273634Y-12536484D01*
X7273634Y-12431722D02*
X7283158Y-12412674D01*
X7283158Y-12412674D02*
X7302205Y-12403150D01*
X7302205Y-12403150D02*
X7330777Y-12403150D01*
X7330777Y-12403150D02*
X7349824Y-12412674D01*
X7349824Y-12412674D02*
X7359348Y-12431722D01*
X7359348Y-12431722D02*
X7359348Y-12536484D01*
X7454586Y-12536484D02*
X7454586Y-12403150D01*
X7454586Y-12422198D02*
X7464110Y-12412674D01*
X7464110Y-12412674D02*
X7483158Y-12403150D01*
X7483158Y-12403150D02*
X7511729Y-12403150D01*
X7511729Y-12403150D02*
X7530777Y-12412674D01*
X7530777Y-12412674D02*
X7540301Y-12431722D01*
X7540301Y-12431722D02*
X7540301Y-12536484D01*
X7540301Y-12431722D02*
X7549824Y-12412674D01*
X7549824Y-12412674D02*
X7568872Y-12403150D01*
X7568872Y-12403150D02*
X7597443Y-12403150D01*
X7597443Y-12403150D02*
X7616491Y-12412674D01*
X7616491Y-12412674D02*
X7626015Y-12431722D01*
X7626015Y-12431722D02*
X7626015Y-12536484D01*
X8016491Y-12326960D02*
X7845063Y-12584103D01*
X8273634Y-12336484D02*
X8292682Y-12336484D01*
X8292682Y-12336484D02*
X8311729Y-12346008D01*
X8311729Y-12346008D02*
X8321253Y-12355531D01*
X8321253Y-12355531D02*
X8330777Y-12374579D01*
X8330777Y-12374579D02*
X8340301Y-12412674D01*
X8340301Y-12412674D02*
X8340301Y-12460293D01*
X8340301Y-12460293D02*
X8330777Y-12498388D01*
X8330777Y-12498388D02*
X8321253Y-12517436D01*
X8321253Y-12517436D02*
X8311729Y-12526960D01*
X8311729Y-12526960D02*
X8292682Y-12536484D01*
X8292682Y-12536484D02*
X8273634Y-12536484D01*
X8273634Y-12536484D02*
X8254586Y-12526960D01*
X8254586Y-12526960D02*
X8245063Y-12517436D01*
X8245063Y-12517436D02*
X8235539Y-12498388D01*
X8235539Y-12498388D02*
X8226015Y-12460293D01*
X8226015Y-12460293D02*
X8226015Y-12412674D01*
X8226015Y-12412674D02*
X8235539Y-12374579D01*
X8235539Y-12374579D02*
X8245063Y-12355531D01*
X8245063Y-12355531D02*
X8254586Y-12346008D01*
X8254586Y-12346008D02*
X8273634Y-12336484D01*
X8426015Y-12517436D02*
X8435539Y-12526960D01*
X8435539Y-12526960D02*
X8426015Y-12536484D01*
X8426015Y-12536484D02*
X8416491Y-12526960D01*
X8416491Y-12526960D02*
X8426015Y-12517436D01*
X8426015Y-12517436D02*
X8426015Y-12536484D01*
X8559348Y-12336484D02*
X8578396Y-12336484D01*
X8578396Y-12336484D02*
X8597444Y-12346008D01*
X8597444Y-12346008D02*
X8606968Y-12355531D01*
X8606968Y-12355531D02*
X8616491Y-12374579D01*
X8616491Y-12374579D02*
X8626015Y-12412674D01*
X8626015Y-12412674D02*
X8626015Y-12460293D01*
X8626015Y-12460293D02*
X8616491Y-12498388D01*
X8616491Y-12498388D02*
X8606968Y-12517436D01*
X8606968Y-12517436D02*
X8597444Y-12526960D01*
X8597444Y-12526960D02*
X8578396Y-12536484D01*
X8578396Y-12536484D02*
X8559348Y-12536484D01*
X8559348Y-12536484D02*
X8540301Y-12526960D01*
X8540301Y-12526960D02*
X8530777Y-12517436D01*
X8530777Y-12517436D02*
X8521253Y-12498388D01*
X8521253Y-12498388D02*
X8511729Y-12460293D01*
X8511729Y-12460293D02*
X8511729Y-12412674D01*
X8511729Y-12412674D02*
X8521253Y-12374579D01*
X8521253Y-12374579D02*
X8530777Y-12355531D01*
X8530777Y-12355531D02*
X8540301Y-12346008D01*
X8540301Y-12346008D02*
X8559348Y-12336484D01*
X8692682Y-12336484D02*
X8816491Y-12336484D01*
X8816491Y-12336484D02*
X8749825Y-12412674D01*
X8749825Y-12412674D02*
X8778396Y-12412674D01*
X8778396Y-12412674D02*
X8797444Y-12422198D01*
X8797444Y-12422198D02*
X8806968Y-12431722D01*
X8806968Y-12431722D02*
X8816491Y-12450769D01*
X8816491Y-12450769D02*
X8816491Y-12498388D01*
X8816491Y-12498388D02*
X8806968Y-12517436D01*
X8806968Y-12517436D02*
X8797444Y-12526960D01*
X8797444Y-12526960D02*
X8778396Y-12536484D01*
X8778396Y-12536484D02*
X8721253Y-12536484D01*
X8721253Y-12536484D02*
X8702206Y-12526960D01*
X8702206Y-12526960D02*
X8692682Y-12517436D01*
X8997444Y-12336484D02*
X8902206Y-12336484D01*
X8902206Y-12336484D02*
X8892682Y-12431722D01*
X8892682Y-12431722D02*
X8902206Y-12422198D01*
X8902206Y-12422198D02*
X8921253Y-12412674D01*
X8921253Y-12412674D02*
X8968872Y-12412674D01*
X8968872Y-12412674D02*
X8987920Y-12422198D01*
X8987920Y-12422198D02*
X8997444Y-12431722D01*
X8997444Y-12431722D02*
X9006968Y-12450769D01*
X9006968Y-12450769D02*
X9006968Y-12498388D01*
X9006968Y-12498388D02*
X8997444Y-12517436D01*
X8997444Y-12517436D02*
X8987920Y-12526960D01*
X8987920Y-12526960D02*
X8968872Y-12536484D01*
X8968872Y-12536484D02*
X8921253Y-12536484D01*
X8921253Y-12536484D02*
X8902206Y-12526960D01*
X8902206Y-12526960D02*
X8892682Y-12517436D01*
X9178396Y-12403150D02*
X9178396Y-12536484D01*
X9130777Y-12326960D02*
X9083158Y-12469817D01*
X9083158Y-12469817D02*
X9206968Y-12469817D01*
X9273634Y-12336484D02*
X9273634Y-12374579D01*
X9349825Y-12336484D02*
X9349825Y-12374579D01*
X9645063Y-12612674D02*
X9635539Y-12603150D01*
X9635539Y-12603150D02*
X9616491Y-12574579D01*
X9616491Y-12574579D02*
X9606968Y-12555531D01*
X9606968Y-12555531D02*
X9597444Y-12526960D01*
X9597444Y-12526960D02*
X9587920Y-12479341D01*
X9587920Y-12479341D02*
X9587920Y-12441246D01*
X9587920Y-12441246D02*
X9597444Y-12393627D01*
X9597444Y-12393627D02*
X9606968Y-12365055D01*
X9606968Y-12365055D02*
X9616491Y-12346008D01*
X9616491Y-12346008D02*
X9635539Y-12317436D01*
X9635539Y-12317436D02*
X9645063Y-12307912D01*
X9711730Y-12355531D02*
X9721253Y-12346008D01*
X9721253Y-12346008D02*
X9740301Y-12336484D01*
X9740301Y-12336484D02*
X9787920Y-12336484D01*
X9787920Y-12336484D02*
X9806968Y-12346008D01*
X9806968Y-12346008D02*
X9816491Y-12355531D01*
X9816491Y-12355531D02*
X9826015Y-12374579D01*
X9826015Y-12374579D02*
X9826015Y-12393627D01*
X9826015Y-12393627D02*
X9816491Y-12422198D01*
X9816491Y-12422198D02*
X9702206Y-12536484D01*
X9702206Y-12536484D02*
X9826015Y-12536484D01*
X10064111Y-12536484D02*
X10064111Y-12336484D01*
X10149825Y-12536484D02*
X10149825Y-12431722D01*
X10149825Y-12431722D02*
X10140301Y-12412674D01*
X10140301Y-12412674D02*
X10121253Y-12403150D01*
X10121253Y-12403150D02*
X10092682Y-12403150D01*
X10092682Y-12403150D02*
X10073634Y-12412674D01*
X10073634Y-12412674D02*
X10064111Y-12422198D01*
X10273634Y-12536484D02*
X10254587Y-12526960D01*
X10254587Y-12526960D02*
X10245063Y-12517436D01*
X10245063Y-12517436D02*
X10235539Y-12498388D01*
X10235539Y-12498388D02*
X10235539Y-12441246D01*
X10235539Y-12441246D02*
X10245063Y-12422198D01*
X10245063Y-12422198D02*
X10254587Y-12412674D01*
X10254587Y-12412674D02*
X10273634Y-12403150D01*
X10273634Y-12403150D02*
X10302206Y-12403150D01*
X10302206Y-12403150D02*
X10321253Y-12412674D01*
X10321253Y-12412674D02*
X10330777Y-12422198D01*
X10330777Y-12422198D02*
X10340301Y-12441246D01*
X10340301Y-12441246D02*
X10340301Y-12498388D01*
X10340301Y-12498388D02*
X10330777Y-12517436D01*
X10330777Y-12517436D02*
X10321253Y-12526960D01*
X10321253Y-12526960D02*
X10302206Y-12536484D01*
X10302206Y-12536484D02*
X10273634Y-12536484D01*
X10454587Y-12536484D02*
X10435539Y-12526960D01*
X10435539Y-12526960D02*
X10426015Y-12507912D01*
X10426015Y-12507912D02*
X10426015Y-12336484D01*
X10606968Y-12526960D02*
X10587920Y-12536484D01*
X10587920Y-12536484D02*
X10549825Y-12536484D01*
X10549825Y-12536484D02*
X10530777Y-12526960D01*
X10530777Y-12526960D02*
X10521253Y-12507912D01*
X10521253Y-12507912D02*
X10521253Y-12431722D01*
X10521253Y-12431722D02*
X10530777Y-12412674D01*
X10530777Y-12412674D02*
X10549825Y-12403150D01*
X10549825Y-12403150D02*
X10587920Y-12403150D01*
X10587920Y-12403150D02*
X10606968Y-12412674D01*
X10606968Y-12412674D02*
X10616492Y-12431722D01*
X10616492Y-12431722D02*
X10616492Y-12450769D01*
X10616492Y-12450769D02*
X10521253Y-12469817D01*
X10692682Y-12526960D02*
X10711730Y-12536484D01*
X10711730Y-12536484D02*
X10749825Y-12536484D01*
X10749825Y-12536484D02*
X10768873Y-12526960D01*
X10768873Y-12526960D02*
X10778396Y-12507912D01*
X10778396Y-12507912D02*
X10778396Y-12498388D01*
X10778396Y-12498388D02*
X10768873Y-12479341D01*
X10768873Y-12479341D02*
X10749825Y-12469817D01*
X10749825Y-12469817D02*
X10721253Y-12469817D01*
X10721253Y-12469817D02*
X10702206Y-12460293D01*
X10702206Y-12460293D02*
X10692682Y-12441246D01*
X10692682Y-12441246D02*
X10692682Y-12431722D01*
X10692682Y-12431722D02*
X10702206Y-12412674D01*
X10702206Y-12412674D02*
X10721253Y-12403150D01*
X10721253Y-12403150D02*
X10749825Y-12403150D01*
X10749825Y-12403150D02*
X10768873Y-12412674D01*
X10845063Y-12612674D02*
X10854587Y-12603150D01*
X10854587Y-12603150D02*
X10873634Y-12574579D01*
X10873634Y-12574579D02*
X10883158Y-12555531D01*
X10883158Y-12555531D02*
X10892682Y-12526960D01*
X10892682Y-12526960D02*
X10902206Y-12479341D01*
X10902206Y-12479341D02*
X10902206Y-12441246D01*
X10902206Y-12441246D02*
X10892682Y-12393627D01*
X10892682Y-12393627D02*
X10883158Y-12365055D01*
X10883158Y-12365055D02*
X10873634Y-12346008D01*
X10873634Y-12346008D02*
X10854587Y-12317436D01*
X10854587Y-12317436D02*
X10845063Y-12307912D01*
X11206968Y-12612674D02*
X11197444Y-12603150D01*
X11197444Y-12603150D02*
X11178396Y-12574579D01*
X11178396Y-12574579D02*
X11168873Y-12555531D01*
X11168873Y-12555531D02*
X11159349Y-12526960D01*
X11159349Y-12526960D02*
X11149825Y-12479341D01*
X11149825Y-12479341D02*
X11149825Y-12441246D01*
X11149825Y-12441246D02*
X11159349Y-12393627D01*
X11159349Y-12393627D02*
X11168873Y-12365055D01*
X11168873Y-12365055D02*
X11178396Y-12346008D01*
X11178396Y-12346008D02*
X11197444Y-12317436D01*
X11197444Y-12317436D02*
X11206968Y-12307912D01*
X11283158Y-12403150D02*
X11283158Y-12536484D01*
X11283158Y-12422198D02*
X11292682Y-12412674D01*
X11292682Y-12412674D02*
X11311730Y-12403150D01*
X11311730Y-12403150D02*
X11340301Y-12403150D01*
X11340301Y-12403150D02*
X11359349Y-12412674D01*
X11359349Y-12412674D02*
X11368872Y-12431722D01*
X11368872Y-12431722D02*
X11368872Y-12536484D01*
X11492682Y-12536484D02*
X11473634Y-12526960D01*
X11473634Y-12526960D02*
X11464111Y-12517436D01*
X11464111Y-12517436D02*
X11454587Y-12498388D01*
X11454587Y-12498388D02*
X11454587Y-12441246D01*
X11454587Y-12441246D02*
X11464111Y-12422198D01*
X11464111Y-12422198D02*
X11473634Y-12412674D01*
X11473634Y-12412674D02*
X11492682Y-12403150D01*
X11492682Y-12403150D02*
X11521253Y-12403150D01*
X11521253Y-12403150D02*
X11540301Y-12412674D01*
X11540301Y-12412674D02*
X11549825Y-12422198D01*
X11549825Y-12422198D02*
X11559349Y-12441246D01*
X11559349Y-12441246D02*
X11559349Y-12498388D01*
X11559349Y-12498388D02*
X11549825Y-12517436D01*
X11549825Y-12517436D02*
X11540301Y-12526960D01*
X11540301Y-12526960D02*
X11521253Y-12536484D01*
X11521253Y-12536484D02*
X11492682Y-12536484D01*
X11616492Y-12403150D02*
X11692682Y-12403150D01*
X11645063Y-12336484D02*
X11645063Y-12507912D01*
X11645063Y-12507912D02*
X11654587Y-12526960D01*
X11654587Y-12526960D02*
X11673634Y-12536484D01*
X11673634Y-12536484D02*
X11692682Y-12536484D01*
X11911730Y-12403150D02*
X11911730Y-12603150D01*
X11911730Y-12412674D02*
X11930777Y-12403150D01*
X11930777Y-12403150D02*
X11968873Y-12403150D01*
X11968873Y-12403150D02*
X11987920Y-12412674D01*
X11987920Y-12412674D02*
X11997444Y-12422198D01*
X11997444Y-12422198D02*
X12006968Y-12441246D01*
X12006968Y-12441246D02*
X12006968Y-12498388D01*
X12006968Y-12498388D02*
X11997444Y-12517436D01*
X11997444Y-12517436D02*
X11987920Y-12526960D01*
X11987920Y-12526960D02*
X11968873Y-12536484D01*
X11968873Y-12536484D02*
X11930777Y-12536484D01*
X11930777Y-12536484D02*
X11911730Y-12526960D01*
X12121253Y-12536484D02*
X12102206Y-12526960D01*
X12102206Y-12526960D02*
X12092682Y-12507912D01*
X12092682Y-12507912D02*
X12092682Y-12336484D01*
X12283158Y-12536484D02*
X12283158Y-12431722D01*
X12283158Y-12431722D02*
X12273634Y-12412674D01*
X12273634Y-12412674D02*
X12254587Y-12403150D01*
X12254587Y-12403150D02*
X12216492Y-12403150D01*
X12216492Y-12403150D02*
X12197444Y-12412674D01*
X12283158Y-12526960D02*
X12264111Y-12536484D01*
X12264111Y-12536484D02*
X12216492Y-12536484D01*
X12216492Y-12536484D02*
X12197444Y-12526960D01*
X12197444Y-12526960D02*
X12187920Y-12507912D01*
X12187920Y-12507912D02*
X12187920Y-12488865D01*
X12187920Y-12488865D02*
X12197444Y-12469817D01*
X12197444Y-12469817D02*
X12216492Y-12460293D01*
X12216492Y-12460293D02*
X12264111Y-12460293D01*
X12264111Y-12460293D02*
X12283158Y-12450769D01*
X12349825Y-12403150D02*
X12426015Y-12403150D01*
X12378396Y-12336484D02*
X12378396Y-12507912D01*
X12378396Y-12507912D02*
X12387920Y-12526960D01*
X12387920Y-12526960D02*
X12406968Y-12536484D01*
X12406968Y-12536484D02*
X12426015Y-12536484D01*
X12568873Y-12526960D02*
X12549825Y-12536484D01*
X12549825Y-12536484D02*
X12511730Y-12536484D01*
X12511730Y-12536484D02*
X12492682Y-12526960D01*
X12492682Y-12526960D02*
X12483158Y-12507912D01*
X12483158Y-12507912D02*
X12483158Y-12431722D01*
X12483158Y-12431722D02*
X12492682Y-12412674D01*
X12492682Y-12412674D02*
X12511730Y-12403150D01*
X12511730Y-12403150D02*
X12549825Y-12403150D01*
X12549825Y-12403150D02*
X12568873Y-12412674D01*
X12568873Y-12412674D02*
X12578396Y-12431722D01*
X12578396Y-12431722D02*
X12578396Y-12450769D01*
X12578396Y-12450769D02*
X12483158Y-12469817D01*
X12749825Y-12536484D02*
X12749825Y-12336484D01*
X12749825Y-12526960D02*
X12730777Y-12536484D01*
X12730777Y-12536484D02*
X12692682Y-12536484D01*
X12692682Y-12536484D02*
X12673634Y-12526960D01*
X12673634Y-12526960D02*
X12664111Y-12517436D01*
X12664111Y-12517436D02*
X12654587Y-12498388D01*
X12654587Y-12498388D02*
X12654587Y-12441246D01*
X12654587Y-12441246D02*
X12664111Y-12422198D01*
X12664111Y-12422198D02*
X12673634Y-12412674D01*
X12673634Y-12412674D02*
X12692682Y-12403150D01*
X12692682Y-12403150D02*
X12730777Y-12403150D01*
X12730777Y-12403150D02*
X12749825Y-12412674D01*
X12826015Y-12612674D02*
X12835539Y-12603150D01*
X12835539Y-12603150D02*
X12854587Y-12574579D01*
X12854587Y-12574579D02*
X12864111Y-12555531D01*
X12864111Y-12555531D02*
X12873634Y-12526960D01*
X12873634Y-12526960D02*
X12883158Y-12479341D01*
X12883158Y-12479341D02*
X12883158Y-12441246D01*
X12883158Y-12441246D02*
X12873634Y-12393627D01*
X12873634Y-12393627D02*
X12864111Y-12365055D01*
X12864111Y-12365055D02*
X12854587Y-12346008D01*
X12854587Y-12346008D02*
X12835539Y-12317436D01*
X12835539Y-12317436D02*
X12826015Y-12307912D01*
M02*
