%TF.GenerationSoftware,KiCad,Pcbnew,7.0.6*%
%TF.CreationDate,2023-07-13T22:11:11-07:00*%
%TF.ProjectId,pcb,7063622e-6b69-4636-9164-5f7063625858,rev?*%
%TF.SameCoordinates,Original*%
%TF.FileFunction,Paste,Top*%
%TF.FilePolarity,Positive*%
%FSLAX46Y46*%
G04 Gerber Fmt 4.6, Leading zero omitted, Abs format (unit mm)*
G04 Created by KiCad (PCBNEW 7.0.6) date 2023-07-13 22:11:11*
%MOMM*%
%LPD*%
G01*
G04 APERTURE LIST*
G04 Aperture macros list*
%AMRoundRect*
0 Rectangle with rounded corners*
0 $1 Rounding radius*
0 $2 $3 $4 $5 $6 $7 $8 $9 X,Y pos of 4 corners*
0 Add a 4 corners polygon primitive as box body*
4,1,4,$2,$3,$4,$5,$6,$7,$8,$9,$2,$3,0*
0 Add four circle primitives for the rounded corners*
1,1,$1+$1,$2,$3*
1,1,$1+$1,$4,$5*
1,1,$1+$1,$6,$7*
1,1,$1+$1,$8,$9*
0 Add four rect primitives between the rounded corners*
20,1,$1+$1,$2,$3,$4,$5,0*
20,1,$1+$1,$4,$5,$6,$7,0*
20,1,$1+$1,$6,$7,$8,$9,0*
20,1,$1+$1,$8,$9,$2,$3,0*%
G04 Aperture macros list end*
%ADD10RoundRect,0.140000X-0.140000X-0.170000X0.140000X-0.170000X0.140000X0.170000X-0.140000X0.170000X0*%
%ADD11R,1.500000X2.000000*%
%ADD12R,3.800000X2.000000*%
%ADD13RoundRect,0.200000X0.200000X0.275000X-0.200000X0.275000X-0.200000X-0.275000X0.200000X-0.275000X0*%
%ADD14RoundRect,0.140000X0.140000X0.170000X-0.140000X0.170000X-0.140000X-0.170000X0.140000X-0.170000X0*%
%ADD15R,0.900000X0.800000*%
%ADD16RoundRect,0.135000X-0.135000X-0.185000X0.135000X-0.185000X0.135000X0.185000X-0.135000X0.185000X0*%
%ADD17RoundRect,0.075000X-0.075000X0.725000X-0.075000X-0.725000X0.075000X-0.725000X0.075000X0.725000X0*%
%ADD18RoundRect,0.075000X-0.725000X0.075000X-0.725000X-0.075000X0.725000X-0.075000X0.725000X0.075000X0*%
%ADD19RoundRect,0.135000X-0.185000X0.135000X-0.185000X-0.135000X0.185000X-0.135000X0.185000X0.135000X0*%
%ADD20RoundRect,0.250000X-0.650000X0.325000X-0.650000X-0.325000X0.650000X-0.325000X0.650000X0.325000X0*%
%ADD21RoundRect,0.218750X-0.256250X0.218750X-0.256250X-0.218750X0.256250X-0.218750X0.256250X0.218750X0*%
%ADD22RoundRect,0.250000X-0.325000X-0.650000X0.325000X-0.650000X0.325000X0.650000X-0.325000X0.650000X0*%
%ADD23RoundRect,0.200000X-0.275000X0.200000X-0.275000X-0.200000X0.275000X-0.200000X0.275000X0.200000X0*%
%ADD24RoundRect,0.250000X0.650000X-0.325000X0.650000X0.325000X-0.650000X0.325000X-0.650000X-0.325000X0*%
%ADD25RoundRect,0.250000X0.325000X0.650000X-0.325000X0.650000X-0.325000X-0.650000X0.325000X-0.650000X0*%
%ADD26RoundRect,0.140000X-0.170000X0.140000X-0.170000X-0.140000X0.170000X-0.140000X0.170000X0.140000X0*%
%ADD27RoundRect,0.140000X0.170000X-0.140000X0.170000X0.140000X-0.170000X0.140000X-0.170000X-0.140000X0*%
%ADD28R,0.850000X1.100000*%
%ADD29R,0.750000X1.100000*%
%ADD30R,1.200000X1.000000*%
%ADD31R,1.550000X1.350000*%
%ADD32R,1.900000X1.350000*%
%ADD33R,1.170000X1.800000*%
%ADD34RoundRect,0.250000X-0.300000X0.300000X-0.300000X-0.300000X0.300000X-0.300000X0.300000X0.300000X0*%
%ADD35RoundRect,0.200000X0.275000X-0.200000X0.275000X0.200000X-0.275000X0.200000X-0.275000X-0.200000X0*%
%ADD36RoundRect,0.218750X0.256250X-0.218750X0.256250X0.218750X-0.256250X0.218750X-0.256250X-0.218750X0*%
%ADD37R,1.500000X1.500000*%
%ADD38R,0.375000X0.500000*%
%ADD39R,0.300000X0.650000*%
%ADD40R,0.500000X2.500000*%
%ADD41R,2.000000X2.500000*%
%ADD42RoundRect,0.218750X-0.218750X-0.256250X0.218750X-0.256250X0.218750X0.256250X-0.218750X0.256250X0*%
G04 APERTURE END LIST*
D10*
%TO.C,DC6*%
X98540000Y-57250000D03*
X99500000Y-57250000D03*
%TD*%
D11*
%TO.C,U3*%
X72882500Y-92870000D03*
X75182500Y-92870000D03*
X77482500Y-92870000D03*
D12*
X75182500Y-86570000D03*
%TD*%
D13*
%TO.C,R4*%
X95325000Y-63000000D03*
X93675000Y-63000000D03*
%TD*%
D14*
%TO.C,DC3*%
X83730000Y-58250000D03*
X82770000Y-58250000D03*
%TD*%
D15*
%TO.C,Y2*%
X87400000Y-60690000D03*
X86000000Y-60690000D03*
X86000000Y-61790000D03*
X87400000Y-61790000D03*
%TD*%
D16*
%TO.C,R15*%
X96740000Y-102000000D03*
X97760000Y-102000000D03*
%TD*%
D17*
%TO.C,U1*%
X92325000Y-69325000D03*
X91825000Y-69325000D03*
X91325000Y-69325000D03*
X90825000Y-69325000D03*
X90325000Y-69325000D03*
X89825000Y-69325000D03*
X89325000Y-69325000D03*
X88825000Y-69325000D03*
X88325000Y-69325000D03*
X87825000Y-69325000D03*
X87325000Y-69325000D03*
X86825000Y-69325000D03*
X86325000Y-69325000D03*
X85825000Y-69325000D03*
X85325000Y-69325000D03*
X84825000Y-69325000D03*
X84325000Y-69325000D03*
X83825000Y-69325000D03*
X83325000Y-69325000D03*
X82825000Y-69325000D03*
X82325000Y-69325000D03*
X81825000Y-69325000D03*
X81325000Y-69325000D03*
X80825000Y-69325000D03*
X80325000Y-69325000D03*
D18*
X78650000Y-71000000D03*
X78650000Y-71500000D03*
X78650000Y-72000000D03*
X78650000Y-72500000D03*
X78650000Y-73000000D03*
X78650000Y-73500000D03*
X78650000Y-74000000D03*
X78650000Y-74500000D03*
X78650000Y-75000000D03*
X78650000Y-75500000D03*
X78650000Y-76000000D03*
X78650000Y-76500000D03*
X78650000Y-77000000D03*
X78650000Y-77500000D03*
X78650000Y-78000000D03*
X78650000Y-78500000D03*
X78650000Y-79000000D03*
X78650000Y-79500000D03*
X78650000Y-80000000D03*
X78650000Y-80500000D03*
X78650000Y-81000000D03*
X78650000Y-81500000D03*
X78650000Y-82000000D03*
X78650000Y-82500000D03*
X78650000Y-83000000D03*
D17*
X80325000Y-84675000D03*
X80825000Y-84675000D03*
X81325000Y-84675000D03*
X81825000Y-84675000D03*
X82325000Y-84675000D03*
X82825000Y-84675000D03*
X83325000Y-84675000D03*
X83825000Y-84675000D03*
X84325000Y-84675000D03*
X84825000Y-84675000D03*
X85325000Y-84675000D03*
X85825000Y-84675000D03*
X86325000Y-84675000D03*
X86825000Y-84675000D03*
X87325000Y-84675000D03*
X87825000Y-84675000D03*
X88325000Y-84675000D03*
X88825000Y-84675000D03*
X89325000Y-84675000D03*
X89825000Y-84675000D03*
X90325000Y-84675000D03*
X90825000Y-84675000D03*
X91325000Y-84675000D03*
X91825000Y-84675000D03*
X92325000Y-84675000D03*
D18*
X94000000Y-83000000D03*
X94000000Y-82500000D03*
X94000000Y-82000000D03*
X94000000Y-81500000D03*
X94000000Y-81000000D03*
X94000000Y-80500000D03*
X94000000Y-80000000D03*
X94000000Y-79500000D03*
X94000000Y-79000000D03*
X94000000Y-78500000D03*
X94000000Y-78000000D03*
X94000000Y-77500000D03*
X94000000Y-77000000D03*
X94000000Y-76500000D03*
X94000000Y-76000000D03*
X94000000Y-75500000D03*
X94000000Y-75000000D03*
X94000000Y-74500000D03*
X94000000Y-74000000D03*
X94000000Y-73500000D03*
X94000000Y-73000000D03*
X94000000Y-72500000D03*
X94000000Y-72000000D03*
X94000000Y-71500000D03*
X94000000Y-71000000D03*
%TD*%
D16*
%TO.C,R14*%
X96740000Y-103250000D03*
X97760000Y-103250000D03*
%TD*%
D10*
%TO.C,DC5*%
X98500000Y-59750000D03*
X99460000Y-59750000D03*
%TD*%
%TO.C,DC4*%
X98540000Y-58500000D03*
X99500000Y-58500000D03*
%TD*%
D19*
%TO.C,R13*%
X92500000Y-101930000D03*
X92500000Y-102950000D03*
%TD*%
D10*
%TO.C,DC8*%
X98520000Y-62250000D03*
X99480000Y-62250000D03*
%TD*%
D19*
%TO.C,R7*%
X93750000Y-85740000D03*
X93750000Y-86760000D03*
%TD*%
D20*
%TO.C,C8*%
X88000000Y-102300000D03*
X88000000Y-105250000D03*
%TD*%
D21*
%TO.C,D2*%
X90500000Y-57962500D03*
X90500000Y-59537500D03*
%TD*%
D19*
%TO.C,R1*%
X81250000Y-104075000D03*
X81250000Y-105095000D03*
%TD*%
%TO.C,R2*%
X83037500Y-104055000D03*
X83037500Y-105075000D03*
%TD*%
D22*
%TO.C,C5*%
X97550000Y-64500000D03*
X100500000Y-64500000D03*
%TD*%
D23*
%TO.C,R6*%
X74182500Y-115070000D03*
X74182500Y-116720000D03*
%TD*%
D24*
%TO.C,C6*%
X93750000Y-91200000D03*
X93750000Y-88250000D03*
%TD*%
D25*
%TO.C,C7*%
X76475000Y-84000000D03*
X73525000Y-84000000D03*
%TD*%
%TO.C,C1*%
X79450000Y-98000000D03*
X76500000Y-98000000D03*
%TD*%
D26*
%TO.C,C4*%
X88750000Y-60790000D03*
X88750000Y-61750000D03*
%TD*%
D27*
%TO.C,DC9*%
X80750000Y-66230000D03*
X80750000Y-65270000D03*
%TD*%
D28*
%TO.C,J3*%
X100165000Y-116780000D03*
X99065000Y-116780000D03*
X97965000Y-116780000D03*
X96865000Y-116780000D03*
X95765000Y-116780000D03*
X94665000Y-116780000D03*
X93565000Y-116780000D03*
D29*
X92515000Y-116780000D03*
D30*
X102800000Y-110630000D03*
X102800000Y-106930000D03*
D31*
X102625000Y-116655000D03*
D32*
X99300000Y-105955000D03*
X93330000Y-105955000D03*
D33*
X91305000Y-116430000D03*
%TD*%
D34*
%TO.C,D3*%
X79250000Y-102455000D03*
X79250000Y-105255000D03*
%TD*%
D10*
%TO.C,DC7*%
X98540000Y-61000000D03*
X99500000Y-61000000D03*
%TD*%
D16*
%TO.C,R16*%
X96740000Y-100750000D03*
X97760000Y-100750000D03*
%TD*%
D19*
%TO.C,R12*%
X91250000Y-101930000D03*
X91250000Y-102950000D03*
%TD*%
D35*
%TO.C,R5*%
X82750000Y-66750000D03*
X82750000Y-65100000D03*
%TD*%
%TO.C,R8*%
X90500000Y-56325000D03*
X90500000Y-54675000D03*
%TD*%
D23*
%TO.C,R3*%
X84500000Y-103530000D03*
X84500000Y-105180000D03*
%TD*%
D36*
%TO.C,L1*%
X79250000Y-66037500D03*
X79250000Y-64462500D03*
%TD*%
D37*
%TO.C,SW1*%
X78850000Y-55250000D03*
X86650000Y-55250000D03*
%TD*%
D38*
%TO.C,U2*%
X81500000Y-101925000D03*
D39*
X82037500Y-102000000D03*
D38*
X82575000Y-101925000D03*
X82575000Y-100225000D03*
D39*
X82037500Y-100150000D03*
D38*
X81500000Y-100225000D03*
%TD*%
D40*
%TO.C,J1*%
X79500000Y-108900000D03*
X80300000Y-108900000D03*
X81100000Y-108900000D03*
X81900000Y-108900000D03*
X82700000Y-108900000D03*
D41*
X76700000Y-108900000D03*
X76700000Y-114400000D03*
X85500000Y-108900000D03*
X85500000Y-114400000D03*
%TD*%
D16*
%TO.C,R10*%
X92490000Y-61500000D03*
X93510000Y-61500000D03*
%TD*%
D26*
%TO.C,DC11*%
X90000000Y-101990000D03*
X90000000Y-102950000D03*
%TD*%
%TO.C,DC1*%
X76000000Y-95020000D03*
X76000000Y-95980000D03*
%TD*%
%TO.C,DC2*%
X74500000Y-95000000D03*
X74500000Y-95960000D03*
%TD*%
D36*
%TO.C,D1*%
X74182500Y-113145000D03*
X74182500Y-111570000D03*
%TD*%
D22*
%TO.C,C2*%
X71050000Y-98000000D03*
X74000000Y-98000000D03*
%TD*%
D16*
%TO.C,R11*%
X96750000Y-99500000D03*
X97770000Y-99500000D03*
%TD*%
D26*
%TO.C,C3*%
X84500000Y-60690000D03*
X84500000Y-61650000D03*
%TD*%
D42*
%TO.C,L2*%
X96962500Y-98000000D03*
X98537500Y-98000000D03*
%TD*%
M02*
