M48
; DRILL file {KiCad 7.0.6} date Mon Jul 17 14:53:02 2023
; FORMAT={-:-/ absolute / inch / decimal}
; #@! TF.CreationDate,2023-07-17T14:53:02-07:00
; #@! TF.GenerationSoftware,Kicad,Pcbnew,7.0.6
; #@! TF.FileFunction,Plated,1,2,PTH
FMAT,2
INCH
; #@! TA.AperFunction,Plated,PTH,ViaDrill
T1C0.0157
; #@! TA.AperFunction,Plated,PTH,ComponentDrill
T2C0.0394
%
G90
G05
T1
X2.6969Y-3.7992
X2.7165Y-3.9272
X2.8248Y-2.2638
X2.9528Y-2.5787
X2.9528Y-2.7953
X2.9921Y-2.4409
X3.0906Y-3.9272
X3.1102Y-3.7992
X3.125Y-3.3661
X3.1496Y-3.4547
X3.1496Y-3.622
X3.1501Y-3.5438
X3.1501Y-3.4946
X3.154Y-3.4099
X3.1594Y-3.7707
X3.1594Y-3.9567
X3.1988Y-3.622
X3.2283Y-4.065
X3.2382Y-3.878
X3.2464Y-3.622
X3.2858Y-3.6221
X3.3061Y-3.8484
X3.3121Y-3.8095
X3.3251Y-3.6216
X3.3268Y-3.937
X3.3645Y-3.6231
X3.376Y-4.1929
X3.3858Y-3.9567
X3.3893Y-3.5638
X3.3978Y-3.6022
X3.4095Y-3.53
X3.4252Y-2.8543
X3.435Y-2.4902
X3.4843Y-3.9075
X3.4854Y-3.4853
X3.5257Y-3.5069
X3.6024Y-3.4449
X3.6713Y-2.126
X3.6811Y-4.0148
X3.7003Y-3.3371
X3.7106Y-2.5296
X3.7106Y-2.569
X3.7106Y-2.6083
X3.7106Y-2.6477
X3.7106Y-2.687
X3.7106Y-4.2421
X3.7205Y-2.3425
X3.7205Y-2.4213
X3.7402Y-4.065
X3.753Y-2.1358
X3.7687Y-3.3858
X3.7992Y-3.2972
X3.8091Y-3.2185
X3.8091Y-3.2579
X3.8091Y-3.8091
X3.8386Y-3.3661
X3.878Y-3.2579
X3.8878Y-3.2185
X3.8976Y-4.0551
X3.9272Y-3.8878
X3.9276Y-3.9956
X3.937Y-4.0846
X3.967Y-3.907
X3.9961Y-3.2283
X4.0551Y-2.0276
X4.065Y-2.2244
T2
X2.4689Y-2.1343
X2.4689Y-2.2343
X2.4689Y-2.3343
X2.4689Y-2.4343
X2.4689Y-2.5343
X2.4689Y-2.6343
X2.4689Y-2.7343
X2.4689Y-2.8343
X2.4689Y-2.9343
X2.4689Y-3.0343
X2.4689Y-3.1343
X2.4689Y-3.2343
X2.4689Y-3.3343
X2.4689Y-3.4343
X2.4689Y-3.5343
X2.4689Y-3.6343
X2.4689Y-3.7343
X2.4689Y-3.8343
X2.4689Y-3.9343
X2.4689Y-4.0343
X2.4689Y-4.1343
X2.4689Y-4.2343
X2.4689Y-4.3343
X2.4689Y-4.4343
X2.4689Y-4.5343
X2.5689Y-2.1343
X2.5689Y-2.2343
X2.5689Y-2.3343
X2.5689Y-2.4343
X2.5689Y-2.5343
X2.5689Y-2.6343
X2.5689Y-2.7343
X2.5689Y-2.8343
X2.5689Y-2.9343
X2.5689Y-3.0343
X2.5689Y-3.1343
X2.5689Y-3.2343
X2.5689Y-3.3343
X2.5689Y-3.4343
X2.5689Y-3.5343
X2.5689Y-3.6343
X2.5689Y-3.7343
X2.5689Y-3.8343
X2.5689Y-3.9343
X2.5689Y-4.0343
X2.5689Y-4.1343
X2.5689Y-4.2343
X2.5689Y-4.3343
X2.5689Y-4.4343
X2.5689Y-4.5343
X2.9433Y-1.9079
X2.9433Y-2.0079
X3.0433Y-1.9079
X3.0433Y-2.0079
X3.1433Y-1.9079
X3.1433Y-2.0079
X3.2433Y-1.9079
X3.2433Y-2.0079
X3.3433Y-1.9079
X3.3433Y-2.0079
X3.4433Y-1.9079
X3.4433Y-2.0079
X3.5433Y-1.9079
X3.5433Y-2.0079
X3.6433Y-1.9079
X3.6433Y-2.0079
X3.7433Y-1.9079
X3.7433Y-2.0079
X3.8433Y-1.9079
X3.8433Y-2.0079
X4.2307Y-2.1339
X4.2307Y-2.2339
X4.2307Y-2.3339
X4.2307Y-2.4339
X4.2307Y-2.5339
X4.2307Y-2.6339
X4.2307Y-2.7339
X4.2307Y-2.8339
X4.2307Y-2.9339
X4.2307Y-3.0339
X4.2307Y-3.1339
X4.2307Y-3.2339
X4.2307Y-3.3339
X4.2307Y-3.4339
X4.2307Y-3.5339
X4.2307Y-3.6339
X4.2307Y-3.7339
X4.2307Y-3.8339
X4.2307Y-3.9339
X4.2307Y-4.0339
X4.2307Y-4.1339
X4.2307Y-4.2339
X4.2307Y-4.3339
X4.2307Y-4.4339
X4.2307Y-4.5339
X4.3307Y-2.1339
X4.3307Y-2.2339
X4.3307Y-2.3339
X4.3307Y-2.4339
X4.3307Y-2.5339
X4.3307Y-2.6339
X4.3307Y-2.7339
X4.3307Y-2.8339
X4.3307Y-2.9339
X4.3307Y-3.0339
X4.3307Y-3.1339
X4.3307Y-3.2339
X4.3307Y-3.3339
X4.3307Y-3.4339
X4.3307Y-3.5339
X4.3307Y-3.6339
X4.3307Y-3.7339
X4.3307Y-3.8339
X4.3307Y-3.9339
X4.3307Y-4.0339
X4.3307Y-4.1339
X4.3307Y-4.2339
X4.3307Y-4.3339
X4.3307Y-4.4339
X4.3307Y-4.5339
T0
M30
