%TF.GenerationSoftware,KiCad,Pcbnew,7.0.6*%
%TF.CreationDate,2023-07-17T14:52:58-07:00*%
%TF.ProjectId,pcb,7063622e-6b69-4636-9164-5f7063625858,rev?*%
%TF.SameCoordinates,Original*%
%TF.FileFunction,Soldermask,Top*%
%TF.FilePolarity,Negative*%
%FSLAX46Y46*%
G04 Gerber Fmt 4.6, Leading zero omitted, Abs format (unit mm)*
G04 Created by KiCad (PCBNEW 7.0.6) date 2023-07-17 14:52:58*
%MOMM*%
%LPD*%
G01*
G04 APERTURE LIST*
G04 Aperture macros list*
%AMRoundRect*
0 Rectangle with rounded corners*
0 $1 Rounding radius*
0 $2 $3 $4 $5 $6 $7 $8 $9 X,Y pos of 4 corners*
0 Add a 4 corners polygon primitive as box body*
4,1,4,$2,$3,$4,$5,$6,$7,$8,$9,$2,$3,0*
0 Add four circle primitives for the rounded corners*
1,1,$1+$1,$2,$3*
1,1,$1+$1,$4,$5*
1,1,$1+$1,$6,$7*
1,1,$1+$1,$8,$9*
0 Add four rect primitives between the rounded corners*
20,1,$1+$1,$2,$3,$4,$5,0*
20,1,$1+$1,$4,$5,$6,$7,0*
20,1,$1+$1,$6,$7,$8,$9,0*
20,1,$1+$1,$8,$9,$2,$3,0*%
G04 Aperture macros list end*
%ADD10RoundRect,0.250000X0.325000X0.650000X-0.325000X0.650000X-0.325000X-0.650000X0.325000X-0.650000X0*%
%ADD11RoundRect,0.135000X-0.185000X0.135000X-0.185000X-0.135000X0.185000X-0.135000X0.185000X0.135000X0*%
%ADD12R,1.700000X1.700000*%
%ADD13O,1.700000X1.700000*%
%ADD14RoundRect,0.135000X-0.135000X-0.185000X0.135000X-0.185000X0.135000X0.185000X-0.135000X0.185000X0*%
%ADD15R,1.500000X2.000000*%
%ADD16R,3.800000X2.000000*%
%ADD17RoundRect,0.140000X-0.170000X0.140000X-0.170000X-0.140000X0.170000X-0.140000X0.170000X0.140000X0*%
%ADD18C,0.900000*%
%ADD19R,0.500000X2.500000*%
%ADD20R,2.000000X2.500000*%
%ADD21R,0.850000X1.100000*%
%ADD22R,0.750000X1.100000*%
%ADD23R,1.200000X1.000000*%
%ADD24R,1.550000X1.350000*%
%ADD25R,1.170000X1.800000*%
%ADD26R,1.900000X1.350000*%
%ADD27RoundRect,0.218750X-0.218750X-0.256250X0.218750X-0.256250X0.218750X0.256250X-0.218750X0.256250X0*%
%ADD28RoundRect,0.075000X-0.075000X0.725000X-0.075000X-0.725000X0.075000X-0.725000X0.075000X0.725000X0*%
%ADD29RoundRect,0.075000X-0.725000X0.075000X-0.725000X-0.075000X0.725000X-0.075000X0.725000X0.075000X0*%
%ADD30RoundRect,0.140000X-0.140000X-0.170000X0.140000X-0.170000X0.140000X0.170000X-0.140000X0.170000X0*%
%ADD31RoundRect,0.200000X0.200000X0.275000X-0.200000X0.275000X-0.200000X-0.275000X0.200000X-0.275000X0*%
%ADD32RoundRect,0.140000X0.140000X0.170000X-0.140000X0.170000X-0.140000X-0.170000X0.140000X-0.170000X0*%
%ADD33R,0.900000X0.800000*%
%ADD34RoundRect,0.250000X-0.650000X0.325000X-0.650000X-0.325000X0.650000X-0.325000X0.650000X0.325000X0*%
%ADD35RoundRect,0.218750X-0.256250X0.218750X-0.256250X-0.218750X0.256250X-0.218750X0.256250X0.218750X0*%
%ADD36RoundRect,0.250000X-0.325000X-0.650000X0.325000X-0.650000X0.325000X0.650000X-0.325000X0.650000X0*%
%ADD37RoundRect,0.200000X-0.275000X0.200000X-0.275000X-0.200000X0.275000X-0.200000X0.275000X0.200000X0*%
%ADD38RoundRect,0.140000X0.170000X-0.140000X0.170000X0.140000X-0.170000X0.140000X-0.170000X-0.140000X0*%
%ADD39RoundRect,0.250000X-0.300000X0.300000X-0.300000X-0.300000X0.300000X-0.300000X0.300000X0.300000X0*%
%ADD40RoundRect,0.200000X0.275000X-0.200000X0.275000X0.200000X-0.275000X0.200000X-0.275000X-0.200000X0*%
%ADD41RoundRect,0.218750X0.256250X-0.218750X0.256250X0.218750X-0.256250X0.218750X-0.256250X-0.218750X0*%
%ADD42R,1.250000X1.000000*%
%ADD43R,0.375000X0.500000*%
%ADD44R,0.300000X0.650000*%
G04 APERTURE END LIST*
D10*
%TO.C,C7*%
X75975000Y-84000000D03*
X73025000Y-84000000D03*
%TD*%
D11*
%TO.C,R7*%
X93750000Y-86760000D03*
X93750000Y-85740000D03*
%TD*%
D12*
%TO.C,J2*%
X97620000Y-51000000D03*
D13*
X97620000Y-48460000D03*
X95080000Y-51000000D03*
X95080000Y-48460000D03*
X92540000Y-51000000D03*
X92540000Y-48460000D03*
X90000000Y-51000000D03*
X90000000Y-48460000D03*
X87460000Y-51000000D03*
X87460000Y-48460000D03*
X84920000Y-51000000D03*
X84920000Y-48460000D03*
X82380000Y-51000000D03*
X82380000Y-48460000D03*
X79840000Y-51000000D03*
X79840000Y-48460000D03*
X77300000Y-51000000D03*
X77300000Y-48460000D03*
X74760000Y-51000000D03*
X74760000Y-48460000D03*
%TD*%
D14*
%TO.C,R11*%
X96750000Y-99500000D03*
X97770000Y-99500000D03*
%TD*%
D15*
%TO.C,U3*%
X71950000Y-93150000D03*
X74250000Y-93150000D03*
X76550000Y-93150000D03*
D16*
X74250000Y-86850000D03*
%TD*%
D17*
%TO.C,DC1*%
X76000000Y-95020000D03*
X76000000Y-95980000D03*
%TD*%
D10*
%TO.C,C1*%
X79450000Y-98000000D03*
X76500000Y-98000000D03*
%TD*%
D18*
%TO.C,J1*%
X83300000Y-111500000D03*
X78900000Y-111500000D03*
D19*
X79500000Y-108900000D03*
X80300000Y-108900000D03*
X81100000Y-108900000D03*
X81900000Y-108900000D03*
X82700000Y-108900000D03*
D20*
X85500000Y-114400000D03*
X85500000Y-108900000D03*
X76700000Y-108900000D03*
X76700000Y-114400000D03*
%TD*%
D12*
%TO.C,J5*%
X65250000Y-54210000D03*
D13*
X62710000Y-54210000D03*
X65250000Y-56750000D03*
X62710000Y-56750000D03*
X65250000Y-59290000D03*
X62710000Y-59290000D03*
X65250000Y-61830000D03*
X62710000Y-61830000D03*
X65250000Y-64370000D03*
X62710000Y-64370000D03*
X65250000Y-66910000D03*
X62710000Y-66910000D03*
X65250000Y-69450000D03*
X62710000Y-69450000D03*
X65250000Y-71990000D03*
X62710000Y-71990000D03*
X65250000Y-74530000D03*
X62710000Y-74530000D03*
X65250000Y-77070000D03*
X62710000Y-77070000D03*
X65250000Y-79610000D03*
X62710000Y-79610000D03*
X65250000Y-82150000D03*
X62710000Y-82150000D03*
X65250000Y-84690000D03*
X62710000Y-84690000D03*
X65250000Y-87230000D03*
X62710000Y-87230000D03*
X65250000Y-89770000D03*
X62710000Y-89770000D03*
X65250000Y-92310000D03*
X62710000Y-92310000D03*
X65250000Y-94850000D03*
X62710000Y-94850000D03*
X65250000Y-97390000D03*
X62710000Y-97390000D03*
X65250000Y-99930000D03*
X62710000Y-99930000D03*
X65250000Y-102470000D03*
X62710000Y-102470000D03*
X65250000Y-105010000D03*
X62710000Y-105010000D03*
X65250000Y-107550000D03*
X62710000Y-107550000D03*
X65250000Y-110090000D03*
X62710000Y-110090000D03*
X65250000Y-112630000D03*
X62710000Y-112630000D03*
X65250000Y-115170000D03*
X62710000Y-115170000D03*
%TD*%
D12*
%TO.C,J4*%
X110000000Y-54200000D03*
D13*
X107460000Y-54200000D03*
X110000000Y-56740000D03*
X107460000Y-56740000D03*
X110000000Y-59280000D03*
X107460000Y-59280000D03*
X110000000Y-61820000D03*
X107460000Y-61820000D03*
X110000000Y-64360000D03*
X107460000Y-64360000D03*
X110000000Y-66900000D03*
X107460000Y-66900000D03*
X110000000Y-69440000D03*
X107460000Y-69440000D03*
X110000000Y-71980000D03*
X107460000Y-71980000D03*
X110000000Y-74520000D03*
X107460000Y-74520000D03*
X110000000Y-77060000D03*
X107460000Y-77060000D03*
X110000000Y-79600000D03*
X107460000Y-79600000D03*
X110000000Y-82140000D03*
X107460000Y-82140000D03*
X110000000Y-84680000D03*
X107460000Y-84680000D03*
X110000000Y-87220000D03*
X107460000Y-87220000D03*
X110000000Y-89760000D03*
X107460000Y-89760000D03*
X110000000Y-92300000D03*
X107460000Y-92300000D03*
X110000000Y-94840000D03*
X107460000Y-94840000D03*
X110000000Y-97380000D03*
X107460000Y-97380000D03*
X110000000Y-99920000D03*
X107460000Y-99920000D03*
X110000000Y-102460000D03*
X107460000Y-102460000D03*
X110000000Y-105000000D03*
X107460000Y-105000000D03*
X110000000Y-107540000D03*
X107460000Y-107540000D03*
X110000000Y-110080000D03*
X107460000Y-110080000D03*
X110000000Y-112620000D03*
X107460000Y-112620000D03*
X110000000Y-115160000D03*
X107460000Y-115160000D03*
%TD*%
D21*
%TO.C,J3*%
X100165000Y-116200000D03*
X99065000Y-116200000D03*
X97965000Y-116200000D03*
X96865000Y-116200000D03*
X95765000Y-116200000D03*
X94665000Y-116200000D03*
X93565000Y-116200000D03*
D22*
X92515000Y-116200000D03*
D23*
X102800000Y-110050000D03*
X102800000Y-106350000D03*
D24*
X102625000Y-116075000D03*
D25*
X91305000Y-115850000D03*
D26*
X93330000Y-105375000D03*
X99300000Y-105375000D03*
%TD*%
D14*
%TO.C,R16*%
X96740000Y-100750000D03*
X97760000Y-100750000D03*
%TD*%
D27*
%TO.C,L2*%
X96962500Y-98000000D03*
X98537500Y-98000000D03*
%TD*%
D28*
%TO.C,U1*%
X92325000Y-69325000D03*
X91825000Y-69325000D03*
X91325000Y-69325000D03*
X90825000Y-69325000D03*
X90325000Y-69325000D03*
X89825000Y-69325000D03*
X89325000Y-69325000D03*
X88825000Y-69325000D03*
X88325000Y-69325000D03*
X87825000Y-69325000D03*
X87325000Y-69325000D03*
X86825000Y-69325000D03*
X86325000Y-69325000D03*
X85825000Y-69325000D03*
X85325000Y-69325000D03*
X84825000Y-69325000D03*
X84325000Y-69325000D03*
X83825000Y-69325000D03*
X83325000Y-69325000D03*
X82825000Y-69325000D03*
X82325000Y-69325000D03*
X81825000Y-69325000D03*
X81325000Y-69325000D03*
X80825000Y-69325000D03*
X80325000Y-69325000D03*
D29*
X78650000Y-71000000D03*
X78650000Y-71500000D03*
X78650000Y-72000000D03*
X78650000Y-72500000D03*
X78650000Y-73000000D03*
X78650000Y-73500000D03*
X78650000Y-74000000D03*
X78650000Y-74500000D03*
X78650000Y-75000000D03*
X78650000Y-75500000D03*
X78650000Y-76000000D03*
X78650000Y-76500000D03*
X78650000Y-77000000D03*
X78650000Y-77500000D03*
X78650000Y-78000000D03*
X78650000Y-78500000D03*
X78650000Y-79000000D03*
X78650000Y-79500000D03*
X78650000Y-80000000D03*
X78650000Y-80500000D03*
X78650000Y-81000000D03*
X78650000Y-81500000D03*
X78650000Y-82000000D03*
X78650000Y-82500000D03*
X78650000Y-83000000D03*
D28*
X80325000Y-84675000D03*
X80825000Y-84675000D03*
X81325000Y-84675000D03*
X81825000Y-84675000D03*
X82325000Y-84675000D03*
X82825000Y-84675000D03*
X83325000Y-84675000D03*
X83825000Y-84675000D03*
X84325000Y-84675000D03*
X84825000Y-84675000D03*
X85325000Y-84675000D03*
X85825000Y-84675000D03*
X86325000Y-84675000D03*
X86825000Y-84675000D03*
X87325000Y-84675000D03*
X87825000Y-84675000D03*
X88325000Y-84675000D03*
X88825000Y-84675000D03*
X89325000Y-84675000D03*
X89825000Y-84675000D03*
X90325000Y-84675000D03*
X90825000Y-84675000D03*
X91325000Y-84675000D03*
X91825000Y-84675000D03*
X92325000Y-84675000D03*
D29*
X94000000Y-83000000D03*
X94000000Y-82500000D03*
X94000000Y-82000000D03*
X94000000Y-81500000D03*
X94000000Y-81000000D03*
X94000000Y-80500000D03*
X94000000Y-80000000D03*
X94000000Y-79500000D03*
X94000000Y-79000000D03*
X94000000Y-78500000D03*
X94000000Y-78000000D03*
X94000000Y-77500000D03*
X94000000Y-77000000D03*
X94000000Y-76500000D03*
X94000000Y-76000000D03*
X94000000Y-75500000D03*
X94000000Y-75000000D03*
X94000000Y-74500000D03*
X94000000Y-74000000D03*
X94000000Y-73500000D03*
X94000000Y-73000000D03*
X94000000Y-72500000D03*
X94000000Y-72000000D03*
X94000000Y-71500000D03*
X94000000Y-71000000D03*
%TD*%
D30*
%TO.C,DC6*%
X98540000Y-57250000D03*
X99500000Y-57250000D03*
%TD*%
D31*
%TO.C,R4*%
X95325000Y-63000000D03*
X93675000Y-63000000D03*
%TD*%
D32*
%TO.C,DC3*%
X83480000Y-59750000D03*
X82520000Y-59750000D03*
%TD*%
D33*
%TO.C,Y2*%
X87400000Y-60690000D03*
X86000000Y-60690000D03*
X86000000Y-61790000D03*
X87400000Y-61790000D03*
%TD*%
D14*
%TO.C,R15*%
X96740000Y-102000000D03*
X97760000Y-102000000D03*
%TD*%
%TO.C,R14*%
X96740000Y-103250000D03*
X97760000Y-103250000D03*
%TD*%
D30*
%TO.C,DC5*%
X98500000Y-59750000D03*
X99460000Y-59750000D03*
%TD*%
%TO.C,DC4*%
X98540000Y-58500000D03*
X99500000Y-58500000D03*
%TD*%
D11*
%TO.C,R13*%
X92500000Y-101930000D03*
X92500000Y-102950000D03*
%TD*%
D30*
%TO.C,DC8*%
X98520000Y-62250000D03*
X99480000Y-62250000D03*
%TD*%
D34*
%TO.C,C8*%
X88000000Y-102300000D03*
X88000000Y-105250000D03*
%TD*%
D35*
%TO.C,D2*%
X90500000Y-57962500D03*
X90500000Y-59537500D03*
%TD*%
D11*
%TO.C,R1*%
X81250000Y-104075000D03*
X81250000Y-105095000D03*
%TD*%
%TO.C,R2*%
X83037500Y-104055000D03*
X83037500Y-105075000D03*
%TD*%
D36*
%TO.C,C5*%
X97550000Y-64500000D03*
X100500000Y-64500000D03*
%TD*%
D37*
%TO.C,R6*%
X73000000Y-113925000D03*
X73000000Y-115575000D03*
%TD*%
D36*
%TO.C,C6*%
X90750000Y-94500000D03*
X93700000Y-94500000D03*
%TD*%
D17*
%TO.C,C4*%
X88750000Y-60790000D03*
X88750000Y-61750000D03*
%TD*%
D38*
%TO.C,DC9*%
X80750000Y-66230000D03*
X80750000Y-65270000D03*
%TD*%
D39*
%TO.C,D3*%
X79250000Y-102455000D03*
X79250000Y-105255000D03*
%TD*%
D30*
%TO.C,DC7*%
X98540000Y-61000000D03*
X99500000Y-61000000D03*
%TD*%
D11*
%TO.C,R12*%
X91250000Y-101930000D03*
X91250000Y-102950000D03*
%TD*%
D40*
%TO.C,R5*%
X82750000Y-66750000D03*
X82750000Y-65100000D03*
%TD*%
%TO.C,R8*%
X90500000Y-56325000D03*
X90500000Y-54675000D03*
%TD*%
D37*
%TO.C,R3*%
X84500000Y-103530000D03*
X84500000Y-105180000D03*
%TD*%
D41*
%TO.C,L1*%
X79250000Y-66037500D03*
X79250000Y-64462500D03*
%TD*%
D42*
%TO.C,SW1*%
X78875000Y-57000000D03*
X86625000Y-57000000D03*
%TD*%
D43*
%TO.C,U2*%
X81500000Y-101925000D03*
D44*
X82037500Y-102000000D03*
D43*
X82575000Y-101925000D03*
X82575000Y-100225000D03*
D44*
X82037500Y-100150000D03*
D43*
X81500000Y-100225000D03*
%TD*%
D14*
%TO.C,R10*%
X92490000Y-61500000D03*
X93510000Y-61500000D03*
%TD*%
D17*
%TO.C,DC11*%
X90000000Y-101990000D03*
X90000000Y-102950000D03*
%TD*%
%TO.C,DC2*%
X74500000Y-95000000D03*
X74500000Y-95960000D03*
%TD*%
D41*
%TO.C,D1*%
X73000000Y-112287500D03*
X73000000Y-110712500D03*
%TD*%
D36*
%TO.C,C2*%
X71050000Y-98000000D03*
X74000000Y-98000000D03*
%TD*%
D17*
%TO.C,C3*%
X84500000Y-60690000D03*
X84500000Y-61650000D03*
%TD*%
M02*
